<svg width="70" height="70" viewBox="0 0 70 70" fill="none" xmlns="http://www.w3.org/2000/svg">
<rect width="70" height="70" rx="35" fill="#FFA42F"/>
<path d="M49.3482 34.0252C49.9387 33.4497 50.1471 32.6051 49.8924 31.82C49.6371 31.0349 48.9721 30.4744 48.1551 30.3555L40.8913 29.3C40.5819 29.2549 40.3146 29.0609 40.1765 28.7804L36.929 22.199C36.5644 21.4595 35.8243 20.9999 34.9995 20.9999C34.1753 20.9999 33.4352 21.4595 33.0706 22.199L29.8226 28.781C29.6844 29.0615 29.4165 29.2555 29.1071 29.3006L21.8433 30.3561C21.0269 30.4744 20.3613 31.0355 20.106 31.8206C19.8513 32.6057 20.0598 33.4503 20.6503 34.0258L25.9059 39.1487C26.13 39.3674 26.2327 39.6821 26.1798 39.9897L24.94 47.2235C24.83 47.8603 24.997 48.4796 25.4091 48.968C26.0495 49.7291 27.1674 49.961 28.0613 49.4912L34.5574 46.0755C34.8289 45.9332 35.1707 45.9344 35.4416 46.0755L41.9384 49.4912C42.2543 49.6576 42.5913 49.7417 42.9391 49.7417C43.5741 49.7417 44.176 49.4594 44.5899 48.968C45.0026 48.4796 45.169 47.8591 45.0591 47.2235L43.8186 39.9897C43.7657 39.6815 43.8684 39.3674 44.0925 39.1487L49.3482 34.0252Z" fill="white"/>
</svg>
