<svg width="70" height="70" viewBox="0 0 70 70" fill="none" xmlns="http://www.w3.org/2000/svg">
<rect width="70" height="70" rx="35" fill="#3F327A"/>
<path d="M46.9236 29.625H44.8194V26.8194C44.8194 21.4049 40.4145 17 35 17C29.5855 17 25.1806 21.4049 25.1806 26.8194V29.625H23.0764C22.6887 29.625 22.375 29.9387 22.375 30.3264V47.8612C22.375 49.4084 23.6332 50.6667 25.1806 50.6667H44.8195C46.3668 50.6667 47.625 49.4084 47.625 47.8611V30.3264C47.625 29.9387 47.3113 29.625 46.9236 29.625ZM37.1001 44.2768C37.122 44.4747 37.0583 44.6733 36.9254 44.822C36.7926 44.9706 36.6021 45.0556 36.4028 45.0556H33.5972C33.3979 45.0556 33.2075 44.9706 33.0746 44.822C32.9417 44.6734 32.878 44.4748 32.9 44.2768L33.3424 40.2979C32.6239 39.7753 32.1945 38.9486 32.1945 38.0417C32.1945 36.4944 33.4527 35.2361 35.0001 35.2361C36.5474 35.2361 37.8056 36.4943 37.8056 38.0417C37.8056 38.9486 37.3762 39.7753 36.6577 40.2979L37.1001 44.2768ZM40.6111 29.625H29.3889V26.8194C29.3889 23.7255 31.9061 21.2083 35 21.2083C38.0939 21.2083 40.6111 23.7255 40.6111 26.8194V29.625Z" fill="white"/>
</svg>
