<svg width="70" height="70" viewBox="0 0 70 70" fill="none" xmlns="http://www.w3.org/2000/svg">
<rect width="70" height="70" rx="35" fill="#6AB04C"/>
<path d="M48.1632 27.5495C48.1525 27.4071 48.0333 27.2969 47.8906 27.2969H42.9687V25.9297C42.9687 21.5571 39.4113 18 35.039 18C30.6668 18 27.1093 21.5571 27.1093 25.9297V27.2969H22.1875C22.0447 27.2969 21.9255 27.4071 21.9148 27.5495L20.0008 52.7058C19.995 52.7815 20.021 52.8564 20.073 52.9122C20.1247 52.9683 20.1974 53 20.2734 53H49.8047C49.8807 53 49.9534 52.9683 50.0051 52.9125C50.0568 52.8567 50.083 52.7818 50.0773 52.7061L48.1632 27.5495ZM29.2968 25.9297C29.2968 22.7636 31.8726 20.1875 35.039 20.1875C38.2054 20.1875 40.7812 22.7636 40.7812 25.9297V27.2969H29.2968V25.9297ZM28.2031 34.9531C26.6951 34.9531 25.4687 33.7265 25.4687 32.2188C25.4687 31.1275 26.0156 30.1442 27.1093 29.7127V32.2188C27.1093 32.822 27.6002 33.3125 28.2031 33.3125C28.806 33.3125 29.2968 32.822 29.2968 32.2188V29.7143C30.3906 30.1458 30.9375 31.1365 30.9375 32.2188C30.9375 33.7265 29.7111 34.9531 28.2031 34.9531ZM41.875 34.9531C40.367 34.9531 39.1406 33.7265 39.1406 32.2188C39.1406 31.1275 39.6875 30.1442 40.7812 29.7127V32.2188C40.7812 32.822 41.272 33.3125 41.875 33.3125C42.4779 33.3125 42.9687 32.822 42.9687 32.2188V29.7143C44.0625 30.1458 44.6093 31.1365 44.6093 32.2188C44.6093 33.7265 43.383 34.9531 41.875 34.9531Z" fill="white"/>
</svg>
