<svg width="1920" height="380" viewBox="0 0 1920 380" fill="none" xmlns="http://www.w3.org/2000/svg">
<mask id="mask0_0_535" style="mask-type:alpha" maskUnits="userSpaceOnUse" x="0" y="0" width="1920" height="380">
<rect width="1920" height="380" fill="#F8F0EA"/>
</mask>
<g mask="url(#mask0_0_535)">
<path d="M296.711 160.74C291.579 152.303 286.457 148.719 278.316 145.589C269.336 142.138 257.391 145.965 249.958 152.395C246.331 155.544 242.54 161.395 241.487 166.147C240.181 171.717 240.402 175.62 241.456 180.286C246.39 201.885 264.309 221.751 288.566 228.327C288.566 228.327 288.566 228.327 288.588 228.394C288.521 228.415 288.409 228.525 288.364 228.613C280.549 227.879 271.043 235.415 271.223 252.282C271.216 254.786 271.545 256.962 271.754 258.072C271.922 258.828 272.003 259.538 272.537 261.206C273.051 262.808 273.505 263.766 274.133 265.037C274.328 265.416 275.044 266.732 275.501 267.468C279.091 273.161 283.041 276.532 289.614 277.295C291.259 290.235 300.367 301.665 292.615 310.772C291.246 312.241 289.525 313.529 287.531 313.505C289.372 311.444 290.388 309.793 289.914 306.707C289.545 304.177 287.196 298.454 282.642 299.398C275.821 300.848 276.186 311.401 284.332 314.089C282.203 316.169 279.067 319.014 278.142 322.327C276.662 327.585 279.19 331.337 281.295 335.151C285.834 343.116 280.698 344.541 284.122 349.257C285.06 350.576 287.258 352.153 289.76 352.381C295.227 352.91 293.926 350.457 292.971 350.69C289.946 351.585 287.869 351.074 285.85 349.366C281.903 345.774 285.877 343.25 284.014 337.665C281.849 331.368 275.567 326.464 282.599 318.324C283.474 317.381 285.646 315.434 286.522 314.491C290.438 315.002 293.572 312.379 295.605 309.078C301.162 300.012 292.974 287.551 291.742 277.275C294.113 277.325 295.578 277.076 297.244 276.763C300.488 276.092 303.984 272.764 304.281 268.18C304.365 266.607 304.277 264.723 303.43 263.228C302.495 261.688 299.846 260.771 298.316 260.819C294.325 260.994 288.847 267.092 289.587 275.832C281.292 274.517 275.54 265.984 274.018 257.788C270.965 242.062 278.924 230.387 287.083 230.127C285.73 232.106 284.414 238.562 284.363 239.093C284.284 240.223 285.269 241.231 286.935 240.918C288.601 240.605 289.417 239.019 291.072 237.753C294.309 235.685 296.995 235.34 297.478 233.861C298.051 232.205 296.126 231.939 291.912 228.433C296.708 225.718 296.275 230.567 300.908 232.394C305.871 234.335 308.662 228.805 306.234 226.051C310.056 223.281 310.017 219.025 310.225 218.296C311.362 217.711 309.869 216.497 309.119 218.062C308.802 218.679 308.464 222.908 305.027 225.04C299.811 221.854 300.97 228.915 305.364 226.55C307.685 228.971 303.869 234.977 298.364 228.131C296.508 225.782 294.321 225.159 291.735 226.503C306.327 204.754 310.063 182.658 296.711 160.74ZM285.12 313.101C276.082 310.846 277.543 299.56 284.113 300.545C286.698 301.262 289.186 306.499 287.751 309.829C287.094 310.996 286.016 312.225 285.12 313.101ZM299.321 262.116C301.862 262.7 302.407 263.482 302.859 264.662C304.142 268.666 302.39 272.612 299.507 274.64C297.185 276.12 294.104 276.151 291.491 276.032C290.59 267.71 295.206 261.448 299.321 262.116ZM302.496 225.409C302.541 225.321 302.563 225.388 302.496 225.409C302.541 225.321 302.563 225.388 302.496 225.409ZM302.629 225.366C302.608 225.299 302.608 225.299 302.629 225.366C302.608 225.299 302.608 225.299 302.629 225.366C302.608 225.299 302.608 225.299 302.629 225.366ZM302.696 225.345C302.918 225.347 303.227 225.395 303.647 225.555C303.158 225.638 302.982 225.548 302.696 225.345ZM243.36 169.006C243.381 169.072 243.314 169.094 243.336 169.16L243.36 169.006ZM243.312 169.315C243.333 169.382 243.267 169.403 243.288 169.47C243.267 169.403 243.312 169.315 243.312 169.315ZM287.19 238.04C287.957 233.085 291.412 235.142 293.83 233.043C293.94 233.155 294.028 233.2 294.204 233.291C288.522 235.995 289.232 235.914 287.19 238.04ZM292.754 232.21C291.505 232.905 288.803 232.74 287.255 234.34C287.674 232.661 288.066 231.358 289.165 230.196C289.475 230.244 289.72 230.092 289.857 229.827C291.173 230.951 291.128 231.039 292.754 232.21ZM299.845 205.654C296.546 214.879 288.99 226.205 288.694 226.888C285.8 226.123 278.414 222.824 275.901 221.642C275.901 221.642 262.406 215.812 249.546 195.428C247.457 192.124 246.15 188.275 245.7 186.873C242.533 177.218 242.702 174.073 243.357 169.227C243.674 166.771 245.047 163.019 247.371 159.478C254.431 148.901 267.076 145.879 274.838 147.365C277.601 147.952 279.716 149.04 282.296 150.2C286.216 152.329 288.063 153.503 291.493 157.776C301.87 170.64 305.645 189.078 299.845 205.654Z" fill="#EFE2DA"/>
<path d="M290.283 162.726C290.109 162.414 289.575 162.585 289.482 162.983C289.479 163.204 290.548 164.702 290.7 164.947C292.704 167.985 294.128 171.281 294.828 173.926C297.101 182.397 296.28 184.426 297.497 184.551C298.715 184.676 298.359 182.877 297.578 179.521C295.297 169.876 293.095 166.682 290.283 162.726Z" fill="#EFE2DA"/>
<path d="M297.178 187.229C296.709 187.6 296.904 187.979 297.1 190.197C297.14 190.553 297.447 190.822 297.802 190.782C298.865 190.883 298.637 189.484 298.546 187.821C298.511 187.023 297.693 186.769 297.178 187.229Z" fill="#EFE2DA"/>
<path d="M298.324 193.558C297.504 193.526 297.828 194.306 297.666 196.786C297.483 199.2 296.995 201.122 296.173 203.151C292.986 210.428 292.847 210.913 293.686 211.234C294.415 211.441 294.575 211.022 296.22 206.742C297.316 203.962 298.658 201.03 298.776 196.577C298.8 196.422 298.871 194.118 298.807 193.918C298.765 193.785 298.567 193.627 298.324 193.558Z" fill="#EFE2DA"/>
<path d="M290.908 215.656C290.476 216.604 289.998 217.64 289.566 218.588C289.339 219.028 289.887 219.589 290.466 219.329C290.712 219.177 292.211 216.048 292.192 215.759C292.088 215.204 291.204 214.972 290.908 215.656Z" fill="#EFE2DA"/>
<path d="M253.778 157.425C252.503 158.496 251.315 159.613 250.28 160.975C247.353 164.93 246.243 174.557 247.031 175.409C247.512 175.99 248.403 175.557 248.433 174.959C248.511 171.991 248.892 167.895 249.79 164.958C250.689 162.021 251.206 161.34 253 159.588C253.829 158.733 255.033 158.127 254.486 157.566C254.312 157.254 254.002 157.206 253.778 157.425Z" fill="#EFE2DA"/>
<path d="M248.649 182.985C247.961 183.132 248.263 183.845 248.707 185.689C248.813 186.023 249.236 187.801 249.522 188.004C249.896 188.252 250.432 187.859 250.304 187.459C249.216 183.834 249.472 182.795 248.649 182.985Z" fill="#EFE2DA"/>
<path d="M252.936 195.446C252.356 195.705 252.506 196.172 253.826 198.913C254.93 201.209 255.664 202.813 256.47 202.113C256.695 201.894 256.809 201.563 256.547 201.205C254.039 197.741 254.139 194.839 252.936 195.446Z" fill="#EFE2DA"/>
<path d="M161.684 9.65462C159.906 11.7238 161.822 16.1124 163.321 18.5466C164.698 20.829 173.083 32.1868 178.854 36.7281C178.63 36.5096 178.751 36.6614 178.957 36.7949C175.817 47.8646 160.647 55.4658 156.48 47.2044C158.179 46.8407 162.999 46.5202 165.014 44.3114C167.971 41.1015 165.186 35.5655 159.408 36.8023C155.754 37.5843 153.647 41.8566 153.901 45.5347C151.594 46.3838 149.433 47.9128 147.776 50.1338C145.699 52.8887 149.462 53.8608 149.365 51.7486C150.015 50.632 151.867 48.9027 154.392 47.829C158.116 57.3406 174.006 53.9396 180.407 40.6615C179.574 45.9052 177.34 48.3384 174.231 52.914C171.542 56.9555 166.781 65.4393 148.005 78.6112C144.442 81.0623 138.851 84.8361 130.997 88.8278C117.521 95.6222 96.4771 101.104 87.391 102.249C55.5381 106.222 24.5028 92.425 9.10304 75.2814C19.7297 78.4279 21.8723 78.0582 25.2773 77.7738C30.06 77.2834 32.3424 75.9062 33.7873 74.3528C34.9469 73.1271 35.5906 71.5674 36.0462 69.9591C45.7218 65.7554 50.6591 53.9457 59.0835 53.0313C59.6966 52.989 59.7997 53.0558 60.0061 53.1893C61.2258 53.9058 61.7777 55.6539 61.9596 56.5037C61.9777 56.5887 61.8928 56.6068 61.911 56.6918C61.7288 57.0863 61.5952 57.2926 61.6861 57.7175C62.0317 59.332 64.8237 59.0899 64.4906 55.8731C64.4301 55.1751 63.7933 53.4452 62.8043 52.1461C61.2085 50.0882 59.0296 50.2879 56.7716 50.949C55.4302 51.3249 54.55 51.7799 52.9597 52.6535C48.8987 54.8557 43.4647 62.6838 36.7025 66.7972C36.4971 62.9309 30.7501 60.1619 26.7252 63.7782C23.6959 66.6483 26.0617 71.474 32.8535 70.8202C31.4751 73.5146 29.1322 74.1938 26.1217 74.6604C19.6757 75.6846 18.1891 74.1365 8.32069 72.8717C8.75779 72.4226 8.64866 71.9128 8.60633 71.2998C14.1494 63.9815 14.5138 63.1926 16.2566 59.7092C18.9952 54.2353 21.6435 45.8481 17.997 40.8522C16.2436 38.4725 12.8326 38.3139 9.83344 42.1551C8.86203 43.4294 8.20011 44.9041 7.62317 46.3606C4.12511 54.9296 5.19784 61.1874 5.97897 68.574C5.43932 66.4678 3.51056 61.1931 1.79974 58.1822C1.4843 57.5388 0.301214 55.7481 -1.13679 54.0119C-2.71434 52.0389 -4.4681 50.9035 -6.87752 50.4417C-15.6595 48.8554 -15.1724 67.3246 3.53761 74.6063C-0.494445 82.7565 -5.1392 89.7047 -14.3344 90.3398C-15.0324 90.4003 -15.9367 90.3272 -16.6893 90.1328C-13.0225 86.5043 -12.4023 81.9281 -14.1191 78.4742C-17.7408 71.5179 -25.4798 73.974 -25.7002 81.6639C-25.7735 83.8124 -24.8883 87.5331 -22.091 90.2225C-27.6451 92.922 -38.728 93.8722 -39.7985 102.988C-40.2243 106.812 -37.5778 105.89 -37.5775 104.646C-37.4418 95.7297 -25.4549 96.0968 -19.2874 92.1108C-13.4555 94.8616 -6.34139 91.5617 -3.65825 89.5655C-0.689765 87.2417 2.67349 83.8558 6.39605 75.5053C6.89337 76.9985 11.2745 80.8597 12.8279 82.3045C12.8461 82.3895 12.8643 82.4745 12.7975 82.5777C14.4764 92.0827 12.6793 94.0669 14.0156 114.843C14.6562 125.725 14.2041 137.73 16.5101 139.369C18.9192 141.076 22.8412 136.148 24.6686 133.891C27.1941 131.573 45.8041 101.018 46.1867 100.314C49.1483 101.28 52.7229 102.204 55.7331 102.981C56.9335 108.59 65.9004 147.994 70.5123 151.273C71.3557 151.892 72.6 151.892 73.9113 150.545C77.1895 147.177 81.8487 131.162 82.6504 128.679C83.7316 125.427 83.8711 125.663 87.1208 115.103C87.3638 114.163 91.1657 104.107 91.1657 104.107C93.3083 103.737 96.3006 103.185 101.108 101.979C105.531 108.941 112.635 118.885 119.013 124.185C119.219 124.318 119.219 124.318 119.013 124.185C119.838 124.719 120.275 125.514 124.808 128.01C125.615 128.459 132.436 132.509 137.468 134.01C146.486 136.701 145.783 133.83 144.309 129.435C141.161 119.711 133.879 90.2548 133.879 90.2548C140.156 86.7786 144.532 83.9757 149.801 80.3596C163.339 92.1254 168.772 89.2741 183.451 99.7291C184.398 100.415 191.261 105.078 193.112 105.837C194.981 106.681 196.456 106.099 196.766 103.811C196.845 103.35 196.797 102.294 196.7 101.426C196.361 99.01 194.718 90.9192 193.329 86.5064C191.492 80.4124 189.314 74.391 186.815 68.5274C185.511 65.3407 184.092 62.4453 182.229 59.5558C181.028 57.6801 179.808 55.7194 178.607 53.8436C178.449 53.5219 178.207 53.2184 178.134 52.8785C177.928 51.5007 180.047 48.1145 180.678 46.913C181.11 46.0209 183.004 42.4161 182.446 41.4692C183.283 42.8896 183.787 43.5816 184.654 44.729C192.997 55.4738 214.375 48.2322 208.552 33.4823C206.241 27.6673 202.223 26.7498 198.915 29.1464C196.535 30.8998 196.061 33.6674 196.51 36.5929C196.607 37.4608 197.924 37.801 198.543 36.9575C198.877 36.4417 198.701 36.035 198.507 34.2992C198.332 30.1598 202.035 29.1896 203.886 29.9488C209.002 32.6752 211.432 46.1072 197.509 47.4876C195.585 47.6328 194.079 47.244 192.332 46.5517C187.914 45.009 185.778 42.0891 183.218 36.7717C183.248 36.4986 183.109 36.2618 182.884 36.0433C182.745 35.8066 182.69 35.5516 182.551 35.3149C184.907 28.0565 189.831 20.3375 190.519 11.9256C190.988 4.98235 187.894 0.49027 184.434 1.76398C182.704 2.40084 181.435 4.36093 180.555 6.06013C178.976 9.06407 178.538 12.0015 178.192 15.3639C177.814 18.9993 178.19 21.5849 178.577 26.3009C176.618 21.2993 173.949 16.7163 171.176 13.3107C170.915 12.9222 170.12 12.1148 169.362 11.4773C166.279 9.11557 163.615 7.46405 161.684 9.65462ZM163.989 41.5982C163.327 44.3171 158.453 44.3826 155.819 44.9464C155.809 36.595 164.476 37.2284 163.989 41.5982ZM27.7079 65.8785C28.6734 64.1611 31.7811 63.3182 33.7409 65.8314C34.1595 66.5416 34.1654 66.9847 33.7888 68.1317C30.8511 68.9382 26.888 68.2757 27.7079 65.8785ZM8.19262 50.6821C10.0761 42.4586 14.8112 38.4236 16.8554 43.4071C19.6088 51.7045 9.57896 65.0486 8.12781 67.4031C7.33445 60.3746 6.74055 56.7693 8.19262 50.6821ZM-19.8268 88.7604C-23.6134 86.0161 -25.3537 79.5457 -21.6264 76.6152C-17.7536 74.3644 -12.1536 82.6747 -19.8268 88.7604ZM4.9342 71.9968C-20.2083 60.4043 -8.10706 40.1296 1.80479 62.358C3.8066 66.7284 4.40081 69.0895 4.9342 71.9968ZM34.6965 103.929C34.6783 103.844 36.6644 98.1757 36.6462 98.0907C36.628 98.0057 36.6098 97.9208 36.5067 97.854C36.9134 97.6781 37.2533 97.6053 37.3505 97.229C37.3991 97.0409 37.3627 96.871 37.3263 96.701C37.4295 96.7678 37.5326 96.8346 37.6176 96.8164C36.8218 99.7416 35.8134 103.334 35.7648 103.523C35.3399 103.614 35.1032 103.753 34.6965 103.929ZM30.2431 122.567C30.2249 122.482 30.2249 122.482 30.2431 122.567C30.3403 122.191 32.6123 113.706 32.7095 113.33C32.94 113.992 32.7095 113.33 33.1037 114.756C32.9337 114.793 32.782 114.914 32.7334 115.102C31.561 119.174 31.5246 119.004 30.577 122.051C30.5103 122.154 30.2431 122.567 30.2431 122.567ZM33.4797 116.098C33.5524 116.438 33.607 116.693 33.8497 116.996C33.4489 117.615 33.1332 118.216 32.7325 118.835C32.9573 117.809 33.2185 116.953 33.4797 116.098ZM29.6244 120.922C29.5881 120.752 29.4667 120.6 29.4303 120.43C30.0138 116.928 31.2834 112.48 31.2834 112.48C31.2653 112.395 31.2653 112.395 31.2471 112.31C31.4838 112.17 31.7205 112.031 32.0423 111.873C31.1734 115.703 30.6024 117.602 29.6244 120.922ZM28.684 119.435C28.3927 119.319 28.1378 119.374 27.8829 119.428C28.4783 116.813 28.7455 116.4 29.1528 113.736C29.5413 113.475 29.948 113.299 30.3365 113.038C29.3039 116.103 29.0973 117.213 28.684 119.435ZM26.6506 120.314C26.4139 120.454 26.1953 120.678 25.9586 120.818C26.3414 118.87 26.955 116.339 27.3257 114.749C27.5624 114.609 27.7991 114.47 27.9509 114.348C27.3918 117.134 27.1733 117.359 26.6506 120.314ZM24.6777 121.892C24.3741 122.134 24.0706 122.377 23.7671 122.62C24.551 118.809 24.1744 119.956 25.1282 116.108C25.4499 115.95 25.7535 115.707 26.0752 115.55C25.2367 119.106 24.9511 120.678 24.6777 121.892ZM22.6016 123.403C22.5166 123.421 22.2799 123.56 22.1949 123.578C22.0735 123.427 22.0372 123.257 21.9158 123.105C22.2196 121.618 21.8249 122.68 23.1798 116.969C23.6228 116.963 23.6896 116.86 24.0295 116.787C23.4463 119.045 23.5676 119.197 22.6016 123.403ZM19.0078 126.127C19.0928 126.109 19.0928 126.109 19.0078 126.127V126.127ZM17.9368 137.731C17.8518 137.749 17.7668 137.767 17.6819 137.786C21.1501 127.001 17.9917 136.742 20.3725 130.012C20.4939 130.163 20.3725 130.012 20.5788 130.145C19.3701 134.047 19.1456 133.829 17.9368 137.731ZM19.6203 128.573C19.7598 128.81 19.6748 128.828 19.7962 128.98C18.5996 132.524 18.8367 131.14 17.2999 136.001C17.2636 135.831 17.2272 135.661 17.2758 135.473C18.1807 133.058 17.9804 133.367 19.6203 128.573ZM17.1428 133.191C17.1369 132.748 17.0459 132.323 17.04 131.88C18.0907 128.9 18.5886 127.905 19.0016 126.928C19.038 127.098 19.038 127.098 19.1775 127.335C17.5984 131.583 17.3372 132.438 17.1428 133.191ZM16.8888 129.513C16.8709 128.184 16.8647 128.985 16.8528 128.099C17.2899 127.65 17.4416 127.528 17.8787 127.079C17.5812 127.765 17.1864 128.827 16.8888 129.513ZM16.2801 112.136C16.4319 112.015 17.0938 110.54 17.1424 110.352C16.7172 111.687 16.5592 112.61 16.3648 113.362C16.292 113.022 16.286 112.579 16.2801 112.136ZM20.6207 107.919C20.9117 109.279 20.748 108.514 20.9299 109.364L18.0565 120.021C17.2127 120.646 17.6012 120.385 16.9759 120.785C16.9941 120.87 19.6368 110.796 20.6207 107.919ZM21.2485 121.648C21.0908 121.326 20.9513 121.09 20.7936 120.768C20.9271 120.562 21.9418 116.168 21.9722 115.895C22.0268 116.15 22.0813 116.404 22.3058 116.623C21.7772 119.136 21.6132 119.615 21.2485 121.648ZM21.3846 111.488C21.5119 112.083 21.6574 112.763 21.6997 113.376C21.2441 114.984 20.3571 118.729 20.1627 119.481C19.92 119.178 19.6469 119.147 19.3919 119.202C21.0563 113.691 19.9933 117.029 21.3846 111.488ZM16.673 118.54C16.6307 117.927 16.5883 117.313 16.546 116.7C16.7708 115.675 17.1901 113.897 17.4331 112.956C17.4331 112.956 18.1194 110.765 19.3219 107.664C19.4737 107.543 19.7104 107.403 19.8622 107.282C18.7447 110.365 17.2685 115.924 16.673 118.54ZM17.5676 109.017C17.5494 108.932 17.5494 108.932 17.6343 108.914L17.5676 109.017ZM16.1895 110.467C16.1531 110.297 16.1349 110.212 16.1835 110.024C16.2503 109.921 16.4202 109.885 16.487 109.781C16.3534 109.988 16.3048 110.176 16.1895 110.467ZM15.3643 84.6055C15.5706 84.739 15.7952 84.9576 16.0015 85.0912C15.8434 86.0137 15.7462 86.3899 15.6186 87.0393C15.4371 84.9454 15.4553 85.0303 15.3643 84.6055ZM17.9979 86.5301C17.5063 86.7242 17.0146 86.9183 16.5229 87.1124C16.6506 86.463 16.7174 86.3598 16.845 85.7104C17.2576 85.9776 17.5853 86.2629 17.9979 86.5301ZM15.8595 94.8082C16.4179 94.5109 16.8914 94.2318 17.4681 94.0195C16.5572 95.9918 16.3991 96.9144 15.8586 98.5408C15.8589 97.2966 15.8592 96.0524 15.8595 94.8082ZM17.9108 95.2578C18.093 94.8633 18.5909 93.8681 18.3482 93.5646C18.7549 93.3886 19.0766 93.2309 19.4833 93.055C19.3679 93.3463 16.9385 100.265 17.0962 100.586C16.7927 100.829 16.386 101.005 16.0825 101.248C17.1332 98.268 17.4007 96.6111 17.9108 95.2578ZM20.7216 92.6122C21.0433 92.4545 21.3832 92.3818 21.7049 92.224C20.8241 95.1675 21.3343 93.8141 19.7612 98.5053C19.6944 98.6085 19.7126 98.6935 19.7308 98.7785C19.2755 99.1425 18.802 99.4216 18.3467 99.7856C18.3467 99.7856 20.6366 92.6304 20.7216 92.6122ZM22.925 91.6963C23.7384 91.3445 23.7384 91.3445 24.0783 91.2717C23.5255 93.2563 22.1286 97.11 22.0982 97.3831C21.7764 97.5408 21.303 97.8199 21.0662 97.9594C22.5848 93.0133 21.8134 95.2223 22.925 91.6963ZM25.0312 91.1567C25.3225 91.2721 25.547 91.4906 25.8383 91.606C24.6477 95.5933 24.7631 95.302 23.9855 98.3122C23.8096 97.9055 23.5669 97.602 23.2574 97.4016C24.8609 92.4373 25.3103 91.6301 25.0312 91.1567ZM27.7438 92.62C27.5921 92.7414 24.9864 100.497 24.9378 100.686C24.7619 100.279 24.6042 99.9571 24.5132 99.5322C24.9867 99.2532 25.1814 97.2564 26.8335 92.1039C27.143 92.3043 27.4343 92.4197 27.7438 92.62ZM29.6186 95.1514C29.8005 96.0012 30.0492 96.7478 30.231 97.5975C30.0307 97.907 27.2246 105.972 27.0425 106.367C26.7756 105.535 26.7756 105.535 26.5088 104.704C27.3588 103.278 28.2703 98.817 29.6186 95.1514ZM30.6434 99.1089C30.8011 99.4306 30.9225 99.5824 31.1106 99.631C29.6287 103.503 29.3675 104.359 28.5658 106.841C28.244 106.998 28.1591 107.017 27.7524 107.193C28.293 105.566 30.3458 99.7947 30.6434 99.1089ZM32.1667 99.5827C32.8283 99.3522 31.845 99.7404 32.5734 99.4068C31.3038 103.855 31.0608 104.796 30.8178 105.737C30.8178 105.737 30.1743 106.052 29.8526 106.21C30.946 102.599 32.1667 99.5827 32.1667 99.5827ZM33.8966 98.9458C34.6432 98.6972 34.8799 98.5576 35.5415 98.3272C34.752 100.451 34.0474 102.557 33.4278 104.645C32.9362 104.839 32.6145 104.997 32.1228 105.191C32.3172 104.438 32.87 102.454 33.8966 98.9458ZM39.4018 97.6787C39.0616 98.9956 38.035 102.503 37.1483 105.004C36.9905 104.682 36.9178 104.342 36.6933 104.124C37.1548 102.958 38.4367 98.1519 38.6311 97.3993C38.7342 97.4661 39.3168 97.6969 39.4018 97.6787ZM37.9852 107.668C37.8943 107.244 37.9488 107.499 37.682 106.667C38.1799 105.672 40.0387 99.4086 40.2939 98.1098C40.5852 98.2252 40.8765 98.3406 41.0828 98.4742C41.186 98.541 39.7283 102.941 37.9852 107.668ZM36.6587 96.4884C36.5738 96.5066 32.4037 98.1989 31.7239 98.3444C31.6694 98.0895 30.8933 94.8786 30.8387 94.6237C31.0573 94.3992 31.0209 94.2292 30.9663 93.9743C32.6291 94.6848 32.9204 94.8002 36.6587 96.4884ZM29.1154 93.2152C25.617 103.028 28.5017 95.7459 25.9265 103.229C25.7688 102.907 25.6778 102.482 25.5201 102.161C25.6355 101.869 28.5873 93.2393 28.6177 92.9662C28.9272 93.1666 28.8241 93.0998 29.1154 93.2152ZM23.3138 90.1912C22.6522 90.4217 18.1604 92.2717 15.8416 93.479C15.8604 91.0755 15.8303 90.1044 15.7456 88.8784C16.8625 88.2839 17.9976 87.7743 19.2541 87.4165C20.5952 88.2848 21.9727 89.323 23.3138 90.1912ZM19.0537 137.137C20.1167 133.799 20.5538 133.35 21.5499 130.115C21.9566 129.939 21.9566 129.939 22.2601 129.696C21.0332 133.514 22.0294 130.279 20.0979 136.202C19.8307 136.615 19.4422 136.876 19.0537 137.137ZM26.3208 128.738C26.2358 128.757 26.3208 128.738 26.3208 128.738C26.2358 128.757 26.3208 128.738 26.3208 128.738ZM21.7795 134.509L21.7127 134.612C22.4659 132.318 23.1096 130.759 23.6442 128.689C23.9477 128.446 23.711 128.586 24.0995 128.325C22.8362 131.973 22.5204 132.573 21.7795 134.509ZM23.6251 132.337C24.2993 130.504 24.7426 129.254 25.4168 127.421C25.5199 127.488 25.5563 127.658 25.6777 127.81C25.1067 129.709 24.6087 130.704 24.3294 131.475C24.129 131.785 23.8437 132.112 23.6251 132.337ZM27.1222 127.5C25.9392 125.71 25.4901 125.273 23.8875 126.504C22.9102 127.336 21.8842 128.355 21.174 128.774C19.269 125.271 20.01 123.335 16.7621 126.43C16.7624 125.185 16.7627 123.941 16.6781 122.715C17.1334 122.351 18.7541 121.204 19.2094 120.84C21.1686 125.842 21.4477 126.316 25.0414 123.591C25.1264 123.573 25.2114 123.555 25.3449 123.349C26.2555 122.62 27.0143 122.014 27.9249 121.286C28.4708 122.591 28.7923 123.677 29.1745 124.217C28.5066 125.249 27.8569 126.366 27.1222 127.5ZM35.0823 114.866C33.7123 108.05 33.008 108.911 30.1004 110.689C24.4368 114.123 27.0046 112.418 23.8784 114.42C23.6482 112.514 22.302 107.47 21.8351 105.704C21.8474 105.346 21.5683 104.873 21.192 104.775C20.3363 104.514 19.1404 105.57 16.0383 108.1C15.9295 106.346 15.9238 104.659 15.9 102.886C18.4191 101.37 21.0173 99.3918 22.4741 98.7245C22.8745 99.3498 25.131 104.91 25.6948 107.544C26.2708 109.82 27.0478 109.298 30.9084 107.406C37.0391 104.494 32.7901 106.648 35.546 104.991C36.371 106.77 36.5704 110.193 37.5111 110.436C36.6974 112.032 35.9991 113.337 35.0823 114.866ZM38.8287 108.288C39.6546 106.334 41.5253 100.957 42.0599 98.8871C42.2662 99.0207 42.4543 99.0693 42.7456 99.1847C42.3205 100.52 41.6037 102.984 41.2453 104.216C40.7959 105.023 41.0267 104.44 38.8287 108.288ZM43.2671 101.206C43.4129 100.642 43.5769 100.162 43.8077 99.5795C43.9958 99.6281 44.099 99.6949 44.2871 99.7435C43.85 100.192 43.6011 100.69 43.2671 101.206ZM88.3433 104.622L88.3252 104.537L88.4101 104.519C88.3251 104.537 88.3433 104.622 88.3433 104.622ZM85.1933 104.852C85.4482 104.797 85.7213 104.828 85.9763 104.773C86.3946 106.727 86.4551 107.425 86.4306 108.142C85.9572 108.421 85.9572 108.421 85.7872 108.457C85.6176 107.249 85.3629 106.06 85.1933 104.852ZM87.3722 104.652C87.8272 105.532 87.6874 106.54 87.1531 107.365C87.1048 106.309 86.9411 105.544 86.7592 104.694C86.9292 104.658 87.2023 104.688 87.3722 104.652ZM84.4953 104.912C84.7499 106.102 84.9196 107.31 85.071 108.433C84.6947 108.335 84.6947 108.335 84.4884 108.202C84.4884 108.202 84.2037 106.041 84.0522 104.918C84.2404 104.967 84.3253 104.949 84.4953 104.912ZM83.1843 105.015C83.1843 105.015 83.2693 104.997 83.1843 105.015C83.2812 105.883 83.4631 106.733 83.56 107.601C82.9532 106.842 82.5286 105.689 83.1843 105.015ZM67.6093 109.06C67.5551 107.56 67.5369 107.475 67.5375 104.987C67.7257 105.036 67.8106 105.017 67.9988 105.066C68.2898 106.426 68.4108 107.822 67.6093 109.06ZM61.6686 104.555C61.5347 106.005 61.504 107.523 61.5582 109.022C60.8969 108.008 60.5391 106.751 61.1524 105.465C61.1161 105.295 61.4986 104.591 61.6686 104.555ZM62.4685 109.538C62.4446 107.766 62.524 106.06 62.6033 104.355C62.7914 104.403 62.9614 104.367 63.1495 104.415C63.1495 104.415 63.0084 110.4 63.0266 110.485C62.5108 110.151 62.5108 110.151 62.2863 109.932C62.3531 109.829 62.4199 109.726 62.4685 109.538ZM64.072 104.573C64.4301 104.586 64.7032 104.616 65.0613 104.628C64.9572 108.294 65.0601 109.605 65.1266 110.746C64.8716 110.801 64.7017 110.837 63.9673 110.728C64.0463 110.266 64.163 104.998 64.072 104.573ZM65.9838 104.786C66.1719 104.835 66.2569 104.817 66.4451 104.865C66.4448 106.11 66.3958 107.542 66.6865 110.146C66.5348 110.267 66.2131 110.425 66.0431 110.461C65.9826 109.763 65.9283 108.264 65.9838 104.786ZM68.5907 141.464C68.7058 142.417 68.7967 142.842 69.2758 144.25C69.1727 144.183 69.0877 144.201 69.0695 144.117C68.8572 143.54 68.7299 142.945 68.5176 142.368C68.5785 141.822 68.3781 142.132 68.5907 141.464ZM71.218 144.19C70.9029 142.302 70.7938 141.792 70.5451 141.046C71.7103 141.507 72.4321 143.219 71.218 144.19ZM69.7258 140.955C69.8713 141.634 69.9867 141.343 70.5078 144.608C70.3379 144.645 70.2347 144.578 70.0648 144.614C69.6038 143.291 69.3856 142.272 69.2159 141.064C69.7076 140.87 69.5376 140.906 69.7258 140.955ZM79.7556 127.611C79.962 127.744 80.1683 127.878 80.3746 128.011C80.326 128.199 80.2592 128.303 80.2106 128.491C79.7616 128.054 79.7252 127.884 79.7556 127.611ZM80.9638 126.197C80.7574 126.063 80.5511 125.929 80.363 125.881C80.5147 125.76 80.9092 125.942 81.0124 126.009C80.9456 126.112 80.9638 126.197 80.9638 126.197ZM79.8591 126.433C80.2717 126.7 80.2717 126.7 80.6662 126.882C80.5994 126.986 80.6358 127.156 80.569 127.259C80.4658 127.192 79.8651 126.876 79.7619 126.809C79.8287 126.706 79.8105 126.621 79.8591 126.433ZM81.2736 125.153C79.1799 124.09 77.9288 127.379 79.5186 128.994C79.6399 129.146 79.7431 129.213 79.8644 129.365C76.2382 141.071 73.9846 148.397 71.5809 149.622C70.8101 149.343 69.6941 146.205 69.4455 145.458C70.7138 145.986 71.9825 145.27 72.5958 143.984C72.778 143.589 72.8206 142.958 72.6933 142.363C72.5478 141.684 71.9229 140.84 71.2008 140.372C70.3937 139.923 68.9613 139.874 68.2025 140.481C67.9839 140.705 68.0021 140.79 67.9353 140.893C66.6193 136.821 62.9013 126.508 58.009 103.649C58.8465 103.826 59.5809 103.935 60.4184 104.111C56.8482 109.852 65.4289 115.48 68.8473 109.861C69.3634 108.951 69.6732 107.907 69.6249 106.851C69.6857 106.305 69.5584 105.71 69.4311 105.115C73.3215 105.438 78.177 105.287 82.0432 105.082C81.1869 107.309 84.0084 110.526 86.5457 109.095C83.7459 116.359 84.9481 114.502 81.2736 125.153ZM128.019 127.234C128.086 127.131 128.171 127.113 128.238 127.009C128.171 127.113 128.189 127.198 128.122 127.301C128.122 127.301 128.122 127.301 128.019 127.234ZM132.574 114.884C132.811 113.5 132.836 112.784 133.656 110.387C133.625 110.66 133.515 113.883 133.655 114.119C133.897 114.423 134.407 114.314 134.517 113.579C134.559 112.948 134.645 111.686 134.693 111.498C134.681 111.856 134.644 114.174 134.784 114.411C134.256 114.435 133.679 114.647 132.574 114.884ZM117.503 119.62C117.418 119.639 117.418 119.639 117.503 119.62C117.788 119.293 119.397 116.016 119.665 115.603C119.142 117.314 119.337 116.562 118.766 118.461C118.225 118.844 117.855 119.19 117.503 119.62ZM122.524 112.769C123.137 112.727 123.75 112.685 124.345 112.557C124.108 112.697 123.993 112.988 123.792 113.298C123.246 113.237 123.082 113.716 122.177 114.887C122.39 114.22 122.372 114.135 122.451 113.674C122.481 113.401 122.154 113.115 121.832 113.273C121.443 113.534 120.812 114.735 120.545 115.148C120.624 114.687 121.134 113.333 121.043 112.909C123.119 112.642 122.779 112.715 122.524 112.769ZM135.223 106.497C135.241 106.582 135.277 106.752 135.295 106.837C135.162 107.043 135.168 107.486 135.137 107.759C134.585 107.255 134.409 108.093 134.196 108.76C134.142 108.505 133.935 108.372 133.765 108.408C134.354 107.838 134.64 107.51 135.223 106.497ZM132.873 109.221C132.94 109.118 133.092 108.997 133.177 108.979C133.128 109.167 132.946 109.561 132.915 109.834C132.964 109.646 132.909 109.391 132.873 109.221ZM129.334 112.2C129.091 111.897 128.563 111.921 128.381 112.316C128.12 111.927 127.507 111.969 127.24 112.382C126.955 112.71 126.772 113.104 126.487 113.432C126.342 112.752 125.759 112.521 125.322 112.97C125.164 112.649 125.146 112.564 124.94 112.43C125.619 112.285 128.612 111.733 131.234 110.283C131.119 110.574 131.07 110.762 130.955 111.054C130.299 110.483 129.68 111.327 129.334 112.2ZM118.876 115.239C119.277 113.375 118.567 112.55 116.247 116.246C116.369 115.153 116.509 114.146 115.756 113.951C116.248 113.757 118.864 113.108 120.072 112.939C119.774 113.624 119.009 115.032 118.876 115.239ZM113.765 115.444C114.032 115.031 114.724 114.528 115.198 114.248C114.882 114.849 114.621 115.705 114.493 116.354C114.251 116.051 114.008 115.747 113.765 115.444ZM118.056 115.147C117.752 116.634 117.091 118.109 116.829 118.965C116.605 118.746 116.362 118.443 116.138 118.224C116.617 117.144 117.285 116.112 118.056 115.147ZM120.884 116.319C120.672 116.987 120.672 116.987 120.538 117.193C120.453 117.212 120.453 117.212 120.386 117.315C120.502 117.023 120.684 116.629 120.884 116.319ZM123.385 114.718C123.288 115.094 123.282 115.895 123.44 116.217C122.778 116.447 122.438 116.52 122.031 116.696C122.062 116.423 123.1 115.045 123.385 114.718ZM124.217 114.451C124.314 114.075 124.429 113.783 124.63 113.474C124.648 113.559 124.636 113.917 124.605 114.19C124.356 114.688 124.095 115.543 124.441 115.914C124.356 115.932 124.186 115.968 124.101 115.986C124.217 115.695 124.168 114.639 124.217 114.451ZM125.443 114.366C125.576 114.16 125.625 113.972 125.759 113.765C125.928 114.973 125.655 114.943 125.594 115.489C125.424 115.526 125.339 115.544 125.169 115.58C125.388 115.356 125.431 114.724 125.443 114.366ZM127.828 113.056C127.865 113.226 127.901 113.396 127.889 113.754C127.725 114.233 127.579 114.798 127.603 115.326C127.075 115.35 126.802 115.32 126.547 115.374C126.59 114.743 127.428 113.675 127.828 113.056ZM128.642 113.948C128.708 113.845 128.69 113.76 128.757 113.657C128.799 114.27 128.641 115.192 129.169 115.168C129.715 115.229 129.57 114.549 129.728 113.627C129.874 113.062 130.086 112.395 130.42 111.879C130.548 112.474 130.286 114.574 130.244 115.205C129.206 115.338 129.546 115.266 128.489 115.314C128.538 115.126 128.629 114.306 128.642 113.948ZM131.367 112.565C131.561 111.813 131.64 111.351 132.12 110.271C132.108 110.629 131.652 114.726 131.894 115.029C131.64 115.084 131.385 115.139 131.045 115.211C131.191 113.403 131.464 112.189 131.367 112.565ZM135.853 109.028C135.889 109.198 135.926 109.368 135.877 109.556C135.835 108.943 135.968 111.225 136.047 112.008C136.034 112.366 135.986 112.554 136.313 112.839C136.435 112.991 136.69 112.937 136.823 112.73C136.841 112.815 136.86 112.9 136.878 112.985C136.678 113.295 135.712 113.768 135.476 113.907C135.591 113.616 135.823 109.301 135.853 109.028ZM139.704 122.867C139.601 122.8 139.412 122.751 139.243 122.788C139.291 122.6 139.322 122.327 139.2 122.175C139.285 122.157 139.352 122.053 139.437 122.035C139.576 122.272 139.631 122.527 139.704 122.867ZM136.08 123.376C136.25 123.339 136.42 123.303 136.657 123.164C136.505 123.285 136.353 123.406 136.22 123.613C136.202 123.528 136.183 123.443 136.08 123.376ZM133.968 124.717C133.998 124.443 134.029 124.17 133.889 123.934C134.551 123.703 134.296 123.758 134.976 123.612C134.623 124.043 134.253 124.389 133.968 124.717ZM132.117 125.202C131.57 125.141 131.066 125.693 130.714 126.124C130.66 125.869 130.69 125.596 130.551 125.359C131.583 124.783 131.819 124.643 132.651 124.376C132.432 124.601 132.317 124.892 132.117 125.202ZM133.088 125.172C133.039 125.36 132.778 126.215 132.644 126.422C132.693 126.234 132.656 126.064 132.705 125.876C132.754 125.687 132.887 125.481 133.088 125.172ZM132.238 126.598C132.238 126.598 132.256 126.683 132.238 126.598V126.598ZM129.263 127.234C129.197 127.337 129.063 127.544 128.996 127.647C129.075 127.186 129.257 126.791 129.525 126.379C129.458 126.482 129.227 127.064 129.263 127.234ZM130.58 127.574C130.848 127.162 131.066 126.937 131.436 126.591C131.005 127.484 130.963 128.115 130.853 128.849C130.75 128.782 130.562 128.734 130.459 128.667C130.453 128.224 130.501 128.036 130.58 127.574ZM135.346 124.511C134.641 125.372 133.348 126.804 133.651 127.806C133.33 127.964 133.178 128.085 132.771 128.261C133.348 126.804 133.142 126.671 135.346 124.511ZM137.555 124.038C137.773 123.813 137.907 123.607 138.211 123.364C137.7 124.718 136.456 125.961 137.008 126.465C136.753 126.52 136.516 126.659 136.346 126.696C136.929 125.682 137.361 124.79 137.555 124.038ZM137.403 122.915L137.488 122.897C137.488 122.897 137.488 122.897 137.403 122.915ZM139.273 123.759C139.279 124.202 139.005 125.416 139.181 125.823C138.586 125.95 138.416 125.986 137.84 126.198C138.356 125.288 137.998 125.276 139.273 123.759ZM140.062 124.123C140.165 124.19 140.165 124.19 140.183 124.275C140.341 124.597 140.432 125.022 140.589 125.343C140.183 125.519 140.098 125.537 140.013 125.556C139.994 125.471 140.013 124.311 140.062 124.123ZM131.645 91.4439C131.809 92.2086 132.355 94.7579 132.518 95.5227C129.361 99.0421 124.317 101.632 119.874 103.294C119.874 103.294 119.978 99.6286 120.118 98.6211C121.191 102.39 120.87 102.548 121.567 102.488C121.992 102.397 121.847 101.717 121.786 101.019C121.483 98.7731 121.459 98.2451 121.496 97.1708C121.939 98.4091 122.321 100.194 122.593 101.468C122.703 101.978 123.467 101.814 123.358 101.305C123.225 100.267 122.879 98.6521 122.789 96.983C123.037 97.7296 123.959 100.376 123.959 100.376C124.275 101.019 124.851 100.807 124.845 100.364C124.743 99.0531 124.294 97.3718 124.039 96.1822C124.494 97.0623 125.186 99.0472 125.295 99.557C125.422 100.152 125.883 100.231 126.102 100.006C126.405 99.7637 125.933 97.5543 125.842 97.1294C125.696 96.4496 125.636 95.7516 125.557 94.9687C125.521 94.7987 125.587 94.6955 125.551 94.5256C126.243 95.2662 126.673 96.8626 126.479 96.3709L126.497 96.4559C126.867 97.3542 126.988 98.7502 127.583 98.6229C128.348 98.4592 127.444 97.1419 127.153 94.5381C127.208 94.7931 127.171 94.6231 127.117 94.3682C127.572 95.2484 127.723 96.3712 127.923 97.3059C127.978 97.5609 128.069 97.9857 128.275 98.1193C128.585 98.3197 128.973 98.0588 128.9 97.7189C128.694 96.3411 128.318 96.2439 128.41 94.1803C129.125 96.6932 128.888 98.077 129.653 97.9133C130.333 97.7678 129.787 97.707 130.079 94.0897C130.333 95.2794 130.242 96.0987 130.855 96.0564C131.298 96.0504 131.377 95.5892 131.371 95.1461C131.353 95.0611 131.335 94.9762 131.317 94.8912C131.681 95.3465 132.355 94.7579 131.991 94.3026C131.881 93.7928 131.433 92.1114 131.22 91.5348C131.305 91.5166 131.475 91.4802 131.645 91.4439ZM107.413 105.695C107.371 103.838 107.857 101.956 108.464 100.227C108.537 100.566 108.573 100.736 108.598 101.264C107.662 106.441 109.956 107.195 109.399 101.271C109.447 101.083 109.478 100.809 109.526 100.621C109.854 102.151 109.587 102.564 109.519 103.911C109.495 104.627 109.628 105.665 110.187 105.368C110.575 105.107 110.472 105.04 110.497 104.324C110.539 102.448 110.406 102.655 110.789 100.707C110.837 100.518 110.819 100.434 110.868 100.245L111.565 105.162C109.471 105.343 108.839 105.301 107.413 105.695ZM105.951 100.942C106 100.754 106 100.754 106.067 100.651C106.364 101.209 106.412 102.265 106.521 102.775L106.54 102.86C106.54 102.86 106.618 103.643 106.666 105.943C106.581 105.962 106.581 105.962 106.496 105.98C106.375 105.828 106.357 105.743 106.236 105.591C106.278 104.96 106.333 102.727 105.951 100.942ZM106.917 100.469C107.171 100.414 107.426 100.36 107.663 100.22C107.499 100.7 107.335 101.179 107.189 101.744C107.183 101.301 107.111 100.961 106.917 100.469ZM105.471 104.511C105.368 104.444 105.35 104.359 105.313 104.189C105.289 103.661 105.35 103.115 105.429 102.654C105.423 103.455 105.447 103.983 105.471 104.511ZM110.006 99.5411C110.091 99.5229 110.261 99.4866 110.346 99.4684C110.279 99.5715 110.249 99.8447 110.182 99.9478C110.024 99.6261 110.024 99.6261 110.006 99.5411ZM117.49 97.1395C117.508 97.2245 117.442 97.3276 117.442 97.3276C117.442 97.3276 117.423 97.2427 117.49 97.1395ZM114.455 99.5665C114.382 99.2266 114.255 98.6318 114.097 98.31C114.437 98.2373 114.674 98.0978 115.014 98.025C114.85 98.5045 114.601 99.0021 114.455 99.5665ZM112.616 99.6935C112.689 100.033 113.003 104.409 113.179 104.816C112.499 104.962 113.009 104.853 112.414 104.98C112.372 103.123 112.549 101.041 112.616 99.6935ZM113.812 99.8819C114.127 101.77 114.12 102.571 114.29 103.779C114.381 104.203 114.994 104.161 115.006 103.803C115.037 103.53 115 103.36 114.946 103.105C114.685 101.472 114.94 100.174 115.566 98.5289C116.045 101.181 115.522 104.137 116.487 103.664C116.809 103.506 116.736 103.166 116.663 102.826C116.609 101.327 116.542 101.43 116.64 99.8098C116.701 99.2636 116.792 98.4442 116.804 98.0862C117.089 100.247 117.306 103.755 117.701 103.937C116.529 104.277 115.049 104.416 113.926 104.568C113.968 103.936 113.441 102.716 113.812 99.8819ZM116.167 97.6004C116.167 97.6004 116.185 97.6854 116.167 97.6004C116.167 97.6004 116.185 97.6854 116.167 97.6004ZM118.011 101.649C117.951 100.951 117.848 99.6402 118.127 97.6252C118.291 98.39 118.8 103.258 119.042 103.561C118.957 103.579 118.957 103.579 119.042 103.561C118.721 103.719 118.381 103.792 118.126 103.846C118.278 103.725 118.047 101.819 118.011 101.649ZM121.046 101.711C121.426 108.472 121.046 101.711 121.046 101.711V101.711ZM121.63 95.7203C121.8 95.6839 121.885 95.6657 122.037 95.5444C121.97 95.6475 121.994 96.1756 122.012 96.2606C121.909 96.1938 121.751 95.8721 121.63 95.7203ZM122.783 95.2957C122.868 95.2775 122.953 95.2593 122.953 95.2593C122.989 95.4293 123.008 95.5143 123.044 95.6842C123.008 95.5143 122.904 95.4475 122.783 95.2957ZM125.97 93.9916C126.055 93.9734 126.207 93.8521 126.292 93.8339C126.243 94.022 126.279 94.192 126.316 94.3619C126.194 94.2101 126.073 94.0584 125.97 93.9916ZM127.257 93.3607C127.427 93.3243 127.493 93.2212 127.663 93.1848C127.597 93.2879 127.566 93.5611 127.518 93.7492C127.481 93.5793 127.463 93.4943 127.257 93.3607ZM129.375 92.463C129.345 92.7361 129.223 93.8285 129.193 94.1016C129.102 93.6768 128.871 93.0151 128.477 92.833C128.799 92.6752 129.138 92.6025 129.375 92.463ZM124.58 94.5557C124.549 94.8288 124.568 94.9138 124.646 95.6968C124.47 95.2901 124.331 95.0533 124.173 94.7316C124.343 94.6952 124.513 94.6589 124.58 94.5557ZM120.731 96.0903C120.652 96.5516 120.701 97.6076 120.707 98.0507C120.616 97.6258 120.282 96.8974 119.857 96.9883C119.432 97.0793 119.396 98.1536 119.371 98.8697C119.31 99.416 119.292 99.331 119.25 99.9622C118.965 97.8014 118.977 97.4433 118.662 96.7999C119.323 96.5694 120.07 96.3208 120.731 96.0903ZM112.009 98.9347C111.912 99.311 111.839 100.215 111.827 100.573C111.681 99.8936 111.675 99.4505 111.414 99.062C111.432 99.147 111.924 98.9529 112.009 98.9347ZM103.384 101.403C103.979 101.275 104.555 101.063 105.065 100.954C104.786 101.725 104.555 102.307 104.464 103.127C104.148 102.483 103.766 101.943 103.384 101.403ZM107.297 107.23C107.449 107.109 107.431 107.024 107.413 106.939C109.841 106.242 122.301 107.574 132.852 97.4953C133.628 100.706 133.876 101.453 134.756 104.73C133.735 107.437 130.573 109.269 127.859 110.294C122.973 111.962 115.708 111.651 113.11 114.873C111.047 112.293 110.422 111.449 107.297 107.23ZM118.091 120.294C118.614 119.827 118.547 119.93 118.832 119.603C119.208 119.7 119.324 119.408 119.524 119.099C124.805 115.125 131.566 118.477 137.375 114.478C138.309 118.011 138.527 119.031 139.061 120.694C135.85 122.714 130.296 122.925 127.212 126.785C122.952 124.319 121.235 123.354 118.091 120.294ZM143.458 133.35C141.164 133.841 134.045 130.476 132.656 129.796C132.552 129.73 132.449 129.663 132.346 129.596C136.286 127.242 139.521 126.994 140.996 126.412C142.324 130.126 143.737 132.579 143.458 133.35ZM180.335 63.1605C180.268 63.2637 180.183 63.2819 180.031 63.4032C180.061 63.1301 180.092 62.857 180.122 62.5839C180.28 62.9056 180.335 63.1605 180.335 63.1605ZM178.392 64.465C178.508 61.6852 178.678 60.4046 178.806 58.511C179.231 59.6643 179.073 59.3426 179.498 60.4959C179.394 61.6733 179.291 62.8507 179.187 64.0282C178.714 64.3072 178.866 64.1859 178.392 64.465ZM178.036 56.9874C177.962 60.3802 177.652 61.424 177.53 65.0049C177.208 65.1626 176.82 65.4235 176.498 65.5813C177.033 62.2675 177.197 61.7881 177.654 56.4472C177.775 56.5989 177.914 56.8357 178.036 56.9874ZM179.136 74.17C179.694 75.117 179.955 75.5055 180.216 75.894C179.712 76.4462 179.324 76.7071 178.698 77.1075C178.923 76.0818 179.027 74.9044 179.136 74.17ZM177.964 76.9981C178.013 76.8099 177.782 77.3925 178.006 77.6111C177.77 77.7506 177.448 77.9083 177.229 78.1329C177.509 76.1179 177.43 76.5791 177.814 72.1425C178.074 72.531 178.232 72.8528 178.493 73.2413C178.493 73.2413 178.013 76.8099 177.964 76.9981ZM173.105 90.835C173.756 87.23 173.883 86.5806 174.181 84.6506C174.442 85.0391 174.636 85.5308 174.897 85.9193C174.745 87.2848 174.611 88.7354 174.374 90.1191C173.985 90.38 173.682 90.6227 173.293 90.8836C173.208 90.9018 173.123 90.92 173.105 90.835ZM175.491 87.0362C175.752 87.4247 175.77 87.5096 176.535 88.5902C176.535 88.5902 175.236 89.5792 175.151 89.5973C175.491 87.0362 175.23 89.1361 175.491 87.0362ZM176.242 69.3685C176.54 69.9269 176.819 70.4004 177.116 70.9588C176.751 75.4804 176.55 77.0341 176.282 78.691C174.88 79.6132 175.42 79.231 174.965 79.595C176.229 72.215 175.865 71.7597 176.242 69.3685ZM177.095 55.5002C176.59 61.0293 175.721 66.103 175.721 66.103C175.047 66.6916 175.193 67.3714 175.648 68.2516C175.502 68.816 175.368 70.2665 175.307 70.8127C175.082 73.0826 175.319 72.9431 174.036 80.2381C172.671 81.3303 172.816 82.0101 173.605 83.6187L172.334 90.5556C171.94 90.3734 171.546 90.1913 171.169 90.0941C171.57 88.2309 171.837 87.8182 171.425 87.5511C172.39 87.0779 171.747 86.1491 171.189 85.2022C171.359 85.1658 171.425 85.0626 171.389 84.8927C171.639 81.9066 172.027 80.4015 172.137 79.6671C172.137 79.6671 172.392 78.3684 172.617 77.3427C174.171 76.2992 175.731 75.6987 173.826 73.4404C173.856 73.1673 175.212 62.4795 175.073 62.2428C175.898 61.5329 176.232 61.017 175.413 59.6816C175.413 59.6816 175.462 58.2492 176.106 54.2011C176.246 54.4379 176.974 55.3484 177.095 55.5002ZM169.695 89.4321C169.792 89.0559 170.041 88.5582 169.731 88.3579C170.138 88.182 170.526 87.9211 170.933 87.7452C170.806 88.3945 170.678 89.0439 170.55 89.6933C170.192 89.6811 169.901 89.5657 169.695 89.4321ZM168.444 88.9888C168.936 88.7947 168.936 88.7947 169.088 88.6733C169.039 88.8614 168.991 89.0496 168.942 89.2377C168.821 89.086 168.633 89.0374 168.444 88.9888ZM170.752 84.407C170.576 84.0003 170.315 83.6118 170.157 83.2901C170.407 81.5482 170.577 80.2676 171.014 78.5744C171.403 78.3135 171.014 78.5744 171.858 77.9494C171.536 79.3514 171.086 81.4027 170.752 84.407ZM169.496 82.2763C169.199 81.7179 168.713 81.1108 168.501 80.5342C168.586 80.516 169.934 79.3389 170.001 79.2357C169.794 80.3463 169.684 81.0807 169.496 82.2763ZM171.72 70.2474C171.599 70.0956 171.423 69.689 171.302 69.5372C171.448 67.7286 171.636 66.5329 171.825 65.3373C172.128 65.0946 172.432 64.8519 172.717 64.5243C172.006 67.4313 171.787 68.9 171.72 70.2474ZM170.64 68.5234C170.361 68.05 169.84 67.273 169.84 67.273C170.04 66.9635 170.714 66.3749 170.932 66.1504C170.841 66.9697 170.726 67.261 170.64 68.5234ZM173.494 64.0025C173.476 63.9175 173.476 63.9175 173.458 63.8325C173.743 63.5049 174.132 63.244 174.417 62.9163C173.444 70.4117 174.429 63.8024 173.201 72.5966C172.454 71.6011 172.715 71.9896 172.333 71.4493C172.765 66.8246 173.494 64.0025 173.494 64.0025ZM174.339 60.8891C174.339 60.8891 174.357 60.9741 174.339 60.8891C174.339 60.8891 174.357 60.9741 174.339 60.8891ZM173.249 74.8969C173.249 74.8969 173.267 74.9819 173.249 74.8969C173.182 75.0001 173.182 75.0001 173.249 74.8969C173.267 74.9819 173.249 74.8969 173.249 74.8969ZM175.135 55.4754C175.013 56.5679 174.886 57.2173 174.715 58.4979C174.072 57.5691 174.351 58.0426 173.848 57.3506C174.334 56.7134 174.752 56.1794 175.135 55.4754ZM163.727 69.0255C163.635 72.3333 162.887 80.0472 161.532 85.7582L161.035 85.5092C161.934 80.1623 162.317 79.4584 163.138 69.5959C163.642 69.0437 163.442 69.3532 163.727 69.0255ZM160.209 84.9749C160.617 81.0663 161.17 79.0818 161.894 70.8398C162.046 70.7184 162.264 70.4939 162.416 70.3726C161.509 80.2533 160.416 85.1085 160.416 85.1085C160.312 85.0417 160.209 84.9749 160.209 84.9749ZM158.886 84.1916C159.439 82.2071 160.37 74.0987 160.546 72.0169C160.698 71.8956 160.917 71.671 161.068 71.5497C160.673 76.3444 159.505 84.5923 159.505 84.5923C159.299 84.4588 159.093 84.3252 158.886 84.1916ZM151.641 78.9884C154.257 77.0954 156.637 75.342 159.265 73.0909C158.943 75.737 158.456 80.1068 157.77 83.5419C154.693 81.6233 153.297 80.5001 151.641 78.9884ZM162.527 86.2561C163.749 80.7515 164.558 73.7355 164.687 68.1093C168.001 64.9115 170.223 62.8364 172.98 58.6917C173.24 59.0802 174.041 60.3307 174.235 60.8223C173.258 61.6536 170.587 64.5359 170.016 65.1912C167.867 67.6063 168.407 67.2241 169.457 69.2211C170.524 71.3032 170.7 71.7099 171.38 72.8086C171.368 73.1667 171.422 73.4216 171.762 73.3489C171.902 73.5856 172.891 74.8847 172.945 75.1396C172.49 75.5037 169.691 77.7911 169.825 77.5848C165.764 81.0312 166.875 79.9936 170.339 86.6282C169.695 86.9437 168.074 88.0904 166.903 88.43C163.935 87.0212 163.814 86.8694 162.527 86.2561ZM186.717 75.1248C186.789 75.4647 186.929 75.7014 187.002 76.0413C186.406 78.6571 185.288 82.9842 184.845 85.4786C184.796 85.6668 184.547 87.4086 184.51 87.2387C184.529 87.3236 184.444 87.3418 184.529 87.3236C184.498 87.5968 184.352 88.1612 184.383 87.8881C184.079 89.375 182.681 95.7171 182.487 96.4697L182.384 96.4029C182.718 95.8871 185.756 79.7737 186.717 75.1248ZM189.355 82.4694C188.201 86.6266 185.795 97.8057 185.703 98.6251C185.582 98.4733 185.394 98.4247 185.272 98.2729C185.43 97.3504 185.57 96.3429 185.728 95.4205C185.504 96.4461 188.742 81.2675 188.803 80.7212C188.93 81.3161 189.143 81.8927 189.355 82.4694ZM184.138 97.5383C184.223 97.5201 188.118 79.1795 188.099 79.0945C188.118 79.1795 188.118 79.1795 188.136 79.2644L184.933 94.613C184.946 94.2549 184.459 97.3805 184.362 97.7568C184.344 97.6718 184.241 97.605 184.138 97.5383ZM183.191 96.8522C185.828 85.0904 185.737 84.6656 185.737 84.6656C185.737 84.6656 185.737 84.6656 185.719 84.5806C185.737 84.6656 186.849 79.8953 187.444 77.2796C187.463 77.3646 187.481 77.4495 187.517 77.6195C184.218 93.3444 183.641 94.8009 183.416 97.0707C183.397 96.9858 183.294 96.919 183.191 96.8522ZM194.314 103.98C194.314 103.98 194.399 103.962 194.314 103.98C194.314 103.98 194.399 103.962 194.314 103.98ZM194.314 103.98C193.167 103.604 187.251 99.6269 186.425 99.0926C187.052 94.9595 189.621 84.5451 189.798 83.7076C190.901 87.2038 194.698 100.788 194.314 103.98ZM186.201 73.5466C186.122 74.0079 185.915 75.1185 185.994 74.6573L181.71 95.7472C180.127 94.5754 176.74 92.4564 174.889 91.6973C178.944 89.052 178.738 88.9185 177.713 87.4494C176.184 85.2884 174.801 82.5629 174.655 81.8831C175.815 80.6574 179.894 78.5401 181.223 77.2781C182.686 75.8096 182.007 75.9551 179.289 71.5603C179.009 71.0868 176.953 67.7056 176.825 67.1108C178.191 66.0187 181.675 65.273 181.767 63.2094C182.465 64.3931 183.077 65.595 183.605 66.8151C184.102 68.3083 186.402 71.9929 186.201 73.5466ZM181.064 10.9279C181.544 8.60343 182.588 5.18058 184.476 3.62122C186.977 2.01952 191.261 7.5012 186.579 19.2564C183.858 26.0595 182.601 27.6614 181.295 30.6958C181.219 22.4475 179.653 20.1165 181.064 10.9279ZM178.939 36.71L178.921 36.625C178.921 36.625 178.921 36.625 178.939 36.71ZM177.872 32.1395C174.316 28.8126 167.162 20.3016 165.53 18.0737C164.347 16.283 163.091 14.1523 162.825 12.0766C162.771 10.5774 163.293 10.1102 164.749 10.6872C171.528 14.1241 175.628 24.9771 177.872 32.1395Z" fill="#EFE2DA"/>
<path d="M82.4548 112.814C80.295 109.366 74.4258 110.178 73.4472 115.986C72.2739 123.791 82.0514 124.631 83.2852 117.524C83.352 117.421 83.4188 117.318 83.3824 117.148C83.4432 116.601 83.5831 115.594 83.4558 114.999C83.468 114.641 82.8493 112.996 82.4548 112.814ZM82.2175 115.442C81.0222 114.009 79.8692 113.19 78.3704 112C80.7679 111.575 82.1814 114.028 82.2175 115.442ZM82.0046 117.354C81.4342 116.765 79.3591 114.543 77.1321 112.442C77.2171 112.424 77.2171 112.424 77.3021 112.406C78.2851 113.262 80.0875 114.209 82.0836 116.892C82.0168 116.996 82.0532 117.166 82.0046 117.354ZM74.8729 118.08C75.3583 118.687 75.9651 119.446 77.0209 120.642C75.7889 120.284 75.0608 119.373 74.8729 118.08ZM78.4228 120.964C78.3864 120.794 74.8187 116.581 74.8187 116.581C74.8005 116.496 74.9159 116.205 74.8977 116.12C77.446 119.307 77.4765 119.034 78.7809 120.976C78.5928 120.928 78.8659 120.958 78.4228 120.964ZM79.7642 120.588C78.5448 118.627 77.4949 117.874 75.2561 114.888C75.3047 114.7 75.3533 114.512 75.4201 114.408C80.2317 119.866 79.831 120.485 80.4744 120.169C80.3227 120.291 80.001 120.449 79.7642 120.588ZM80.8447 119.824C81.2091 119.035 76.7129 114.221 76.0212 113.48C76.2883 113.067 76.088 113.377 76.3733 113.049C78.3939 115.016 78.7216 115.301 80.7786 117.438C81.4521 118.094 81.3671 118.112 81.3671 118.112C81.4885 118.264 81.5917 118.331 81.7798 118.379C81.3486 119.271 81.1301 119.496 80.8447 119.824Z" fill="#EFE2DA"/>
<path d="M69.3179 120.78C69.0633 119.591 68.2502 118.698 67.17 118.218C63.3953 116.36 61.6513 124.821 66.5432 124.84C69.2198 124.889 69.961 121.709 69.3179 120.78ZM67.2233 123.45C67.6667 122.2 67.7457 121.739 68.1405 120.677C68.1587 120.762 68.1405 120.677 68.1951 120.932C68.0856 121.666 68.5952 122.801 67.2233 123.45ZM66.3808 119.098C66.2472 119.305 65.2996 122.351 65.1842 122.642C64.6261 121.696 64.8634 119.068 66.3808 119.098ZM65.876 123.383C66.3316 121.775 67.1029 119.566 67.1029 119.566C67.4124 119.766 67.3092 119.699 67.6369 119.985C67.3152 120.142 66.4526 123.171 66.2522 123.48C65.9791 123.45 66.0641 123.432 65.876 123.383Z" fill="#EFE2DA"/>
<path d="M73.1888 127.238C71.447 126.989 69.4377 128.397 68.8062 129.598C67.9075 131.213 67.7125 134.454 69.5995 136.627C70.898 138.126 75.0007 139.026 76.6585 135.56C76.6403 135.475 76.7252 135.457 76.7071 135.372C77.5085 134.134 77.6424 132.684 77.2482 131.257C76.8541 129.831 75.5801 127.615 73.1888 127.238ZM75.7917 130.68C74.4506 129.812 73.2854 129.351 71.8107 128.689C73.0126 128.076 74.724 128.598 75.7917 130.68ZM71.0155 129.125C74.4444 130.613 76.1981 131.749 76.1981 131.749C76.2527 132.004 76.3254 132.344 76.295 132.617C74.3045 131.621 72.399 130.607 70.2749 129.817C70.4753 129.508 70.7788 129.265 71.0155 129.125ZM69.7942 134.63C71.7848 135.626 70.6863 135.061 73.4354 136.695C71.6145 136.907 70.4797 136.172 69.7942 134.63ZM74.6068 136.355C74.4551 136.476 74.3701 136.494 74.2001 136.531C74.1578 135.918 70.0068 133.962 69.5092 133.714C69.4547 133.459 69.4728 133.544 69.4851 133.185C69.9827 133.434 74.789 135.96 74.8922 136.027C74.8072 136.045 74.6736 136.252 74.6068 136.355ZM75.645 134.977C75.645 134.977 75.5114 135.184 75.3111 135.493C74.2127 134.929 72.3921 133.896 69.4246 132.487C69.455 132.214 69.4186 132.044 69.449 131.771C72.6715 133.126 75.7786 134.771 75.7786 134.771C75.7786 134.771 75.7118 134.874 75.645 134.977ZM76.0762 134.085C75.5058 133.497 70.396 131.213 69.6252 130.934C69.6738 130.746 69.7224 130.558 69.856 130.351C72.7326 131.335 75.2571 132.75 76.2706 133.333C76.2038 133.436 76.3069 133.503 76.0762 134.085Z" fill="#EFE2DA"/>
<path d="M1710.4 12.3127C1706.5 10.1127 1698.8 20.0127 1696.3 23.8127C1696.4 18.0127 1696.2 8.41268 1692.5 3.91268C1690.9 2.01268 1688.7 1.21268 1687.2 2.91268C1685.9 4.31268 1685.9 6.31268 1686.2 8.11268C1687.2 14.9127 1689.2 21.0127 1691.4 27.5127C1685.4 26.3127 1678.9 32.0127 1674.2 26.7127C1676.4 26.4127 1679.2 25.5127 1681.1 24.1127C1682.4 23.1127 1683.2 21.7127 1683.2 19.8127C1683.2 17.8127 1681.3 15.9127 1679.6 15.4127C1677.2 14.7127 1674.6 15.2127 1672.9 17.1127C1671.9 18.3127 1671.4 19.9127 1671.1 21.4127C1670.9 22.3127 1670.8 23.6127 1671 24.5127C1669.5 24.6127 1667.4 24.7127 1665.7 26.0127C1663.8 27.4127 1663.2 30.3127 1663.6 31.1127C1664.3 32.7127 1666.5 31.7127 1665.9 30.2127C1666.3 26.7127 1668.6 27.0127 1672.1 26.9127C1677.8 35.1127 1687.2 28.3127 1691.4 30.2127C1676.6 42.1127 1652.3 51.1127 1646.3 52.8127C1644.7 53.2127 1643 53.6127 1641.4 53.9127C1637 54.8127 1632.6 55.2127 1628.1 55.3127C1623.4 55.4127 1618.8 55.2127 1614.1 54.5127C1609.3 53.8127 1604.5 52.8127 1599.9 51.3127C1595.1 49.8127 1590.4 47.9127 1585.9 45.5127C1581.2 43.1127 1576.7 40.2127 1572.5 37.0127C1570.3 35.3127 1568.2 33.5127 1566.2 31.6127C1565.2 30.6127 1564.2 29.6127 1563.2 28.6127C1562.7 28.1127 1562.2 27.6127 1561.7 27.0127C1561.2 26.5127 1560.7 25.9127 1560.5 25.2127C1560.5 25.0127 1560.4 24.8127 1560.6 24.6127C1560.8 24.3127 1561.5 24.6127 1561.7 24.7127C1561.8 24.8127 1562 24.9127 1562.1 24.9127C1562.4 25.1127 1562.7 25.2127 1563.1 25.3127C1563.7 25.6127 1564.4 25.8127 1565 25.9127C1566.3 26.2127 1567.7 26.4127 1569 26.3127C1572.6 26.2127 1576.6 24.8127 1579 22.0127C1581.5 19.0127 1580.7 15.2127 1578.3 12.4127C1576.9 10.8127 1574.5 10.0127 1571.9 11.1127C1568.6 12.5127 1568.5 16.4127 1570.6 16.9127C1572.3 17.4127 1572.6 15.2127 1571.4 14.8127C1570.9 13.5127 1573.1 11.6127 1575.5 12.1127C1580 13.4127 1582.3 23.3127 1569.4 24.0127C1565.2 24.0127 1564.3 23.4127 1561.8 22.1127C1564.4 16.6127 1567 7.61268 1563.7 2.11268C1561.9 -0.887316 1559.2 -0.387316 1557.8 1.71268C1555.4 5.41268 1555.6 14.2127 1555.4 19.0127C1552.9 16.9127 1545.6 11.0127 1542.4 10.6127C1537.7 10.0127 1536.6 15.9127 1547.5 21.8127C1549.3 22.8127 1555.1 24.3127 1557.6 25.6127C1557.4 26.0127 1557.2 26.3127 1557 26.7127C1555.2 30.0127 1554.2 33.0127 1552 34.5127C1550 35.5127 1547.5 36.0127 1545.4 34.9127C1541 32.2127 1543.7 28.4127 1545.4 29.2127C1547.1 30.3127 1546.8 33.3127 1548.6 32.6127C1549.6 32.2127 1549.3 31.2127 1548.8 30.3127C1548.1 28.9127 1546.9 27.4127 1545.4 27.2127C1542.1 26.8127 1539.1 31.7127 1543.1 35.6127C1544.1 36.6127 1545.1 37.1127 1546.1 37.4127C1548.2 38.2127 1550.4 38.2127 1552.9 37.4127C1556.4 36.3127 1558 31.9127 1559.5 28.7127C1562 31.9127 1565.2 34.8127 1568.4 37.3127C1567.4 39.8127 1565.8 45.0127 1562.3 52.5127C1561.3 54.6127 1557.9 61.2127 1556.4 65.3127C1554.5 70.3127 1560.7 66.5127 1568.5 65.1127C1569 65.0127 1573.1 64.1127 1573.5 64.3127C1574 64.7127 1576.4 70.9127 1576.6 71.5127C1579.2 78.0127 1578.9 79.6127 1580.2 80.1127C1583 81.2127 1583.8 74.5127 1595.8 54.3127C1596 53.9127 1596.2 53.5127 1596.5 53.1127C1602.8 55.5127 1605.7 55.9127 1614.5 57.2127C1613.8 58.1127 1616.8 84.7127 1617.4 89.1127C1617.6 90.3127 1618.3 90.8127 1619 90.7127C1620.6 90.5127 1622.7 85.3127 1629 78.2127C1634.7 82.3127 1639.9 89.4127 1640.8 90.0127C1641.9 90.8127 1643.3 90.6127 1643.6 88.5127C1644 85.9127 1642 61.3127 1642.5 57.2127C1642.5 56.8127 1642.4 56.4127 1642.2 56.1127C1648 54.8127 1651 53.8127 1658.6 50.6127C1658.8 51.4127 1670.4 77.5127 1672 78.4127C1672.6 78.7127 1673.4 78.5127 1673.9 77.5127C1675 75.3127 1676.5 62.3127 1677.9 60.5127C1678.9 60.6127 1685.7 63.9127 1689 65.7127C1693.7 68.5127 1694.8 69.8127 1696.3 69.1127C1697.7 68.4127 1697.4 66.7127 1697 65.2127C1695.4 59.7127 1691.3 52.3127 1687.5 42.2127C1686.9 40.5127 1686.3 38.9127 1685.3 37.4127C1688.2 35.5127 1690.5 33.9127 1693.1 31.8127C1693.4 32.2127 1693.8 33.0127 1694.1 33.3127C1695.4 35.9127 1696.2 38.9127 1699.1 42.6127C1701.1 45.1127 1705.5 47.3127 1708.7 46.3127C1713.2 44.9127 1713.8 34.4127 1709.3 33.0127C1708 32.6127 1706.6 33.1127 1705.7 34.3127C1703.1 38.0127 1706.3 38.8127 1706.9 37.3127C1707.5 35.7127 1707.4 35.0127 1708.4 34.6127C1709 34.5127 1709.4 34.7127 1709.8 35.1127C1711.1 36.5127 1711.1 39.4127 1710.6 41.3127C1710.2 42.6127 1709.6 44.1127 1708.3 44.5127C1706.2 45.0127 1703.6 43.5127 1702 42.1127C1700 40.0127 1697.7 34.6127 1696.5 32.3127C1704.9 32.2127 1716.6 15.8127 1710.4 12.3127ZM1672.8 24.3127C1672.3 22.8127 1673.1 18.8127 1675 17.5127C1678.8 15.4127 1683.7 19.4127 1678.8 22.6127C1677.6 23.3127 1675.4 24.1127 1672.8 24.3127ZM1571.6 15.0127C1571.5 14.9127 1571.5 15.0127 1571.6 15.0127C1571.5 14.9127 1571.5 15.0127 1571.6 15.0127ZM1541.1 13.2127C1541.1 13.1127 1541.1 13.2127 1541.1 13.2127C1541.1 13.1127 1541.1 13.1127 1541.1 13.2127C1541.1 13.2127 1541.1 13.1127 1541.1 13.2127ZM1541.1 13.2127C1541 13.2127 1541 13.2127 1541.1 13.2127C1541 13.2127 1541 13.2127 1541.1 13.2127ZM1547.8 19.7127C1545.8 18.5127 1541.4 15.6127 1541.1 13.2127C1541.6 10.4127 1552 19.3127 1555.9 22.7127C1551 21.0127 1550.4 21.1127 1547.8 19.7127ZM1562.3 3.71268C1563.5 5.61268 1563.6 8.41268 1563.5 10.5127C1563.4 12.5127 1562.8 14.3127 1562.2 16.3127C1561.6 18.4127 1560.7 20.4127 1559.6 22.3127C1559.5 22.5127 1559.3 22.8127 1559 22.8127C1558.8 22.8127 1558.7 22.5127 1558.6 22.3127C1558.4 21.6127 1558.3 21.0127 1558.2 20.3127C1558 18.1127 1558.3 15.7127 1558.4 13.5127C1558.5 11.4127 1558.7 9.21268 1559 7.11268C1559.2 5.81268 1559.4 4.11268 1560.2 3.01268C1561 2.01268 1561.9 3.01268 1562.3 3.71268ZM1581.3 76.7127C1580.7 74.3127 1577 63.2127 1574.7 62.1127C1572.1 60.9127 1559.4 65.5127 1558.6 65.7127C1566.7 48.9127 1564.7 54.3127 1570.4 38.9127C1583.5 48.8127 1585.6 49.0127 1594 52.2127C1592.6 54.5127 1582.3 74.9127 1581.3 76.7127ZM1641.1 86.4127C1638.5 83.1127 1635.6 80.1127 1632 77.1127C1628.2 73.9127 1628 75.2127 1623.1 81.8127C1620.9 84.7127 1620.4 85.7127 1619.6 87.0127C1619.6 86.8127 1616.9 57.7127 1616.8 57.6127C1622.8 58.3127 1632.8 58.1127 1639.6 56.8127C1638.7 59.9127 1641.1 82.5127 1641.1 86.4127ZM1694.1 65.3127C1690.2 62.7127 1680.3 57.3127 1677.4 57.7127C1673.7 58.2127 1673.9 68.4127 1672.4 75.7127C1670.7 71.4127 1661 50.0127 1660.9 49.8127C1667.6 47.0127 1676.8 42.9127 1682.9 39.0127C1684.3 41.4127 1693.3 61.7127 1694.1 65.3127ZM1691.6 5.91268C1694.4 10.9127 1694 21.4127 1693.4 27.1127C1684.2 0.312683 1689.2 2.11268 1691.6 5.91268ZM1695.8 29.8127C1697.1 25.8127 1708.5 10.4127 1710 14.7127C1711 19.8127 1701.6 30.1127 1695.8 29.8127Z" fill="#EFE2DA"/>
<path d="M1606 75.7126C1604.5 76.0126 1603.2 76.1126 1603.4 77.3126C1603.6 78.7126 1605.1 78.2126 1606.3 77.9126C1607 77.7126 1607.3 77.2126 1607.2 76.6126C1607.2 76.1126 1606.6 75.5126 1606 75.7126Z" fill="#EFE2DA"/>
<path d="M1607.7 89.1126C1608.3 90.5126 1609.7 89.5126 1611.9 88.3126C1613.5 87.4126 1612.1 85.4126 1611 86.1126C1608.3 87.5126 1607.2 87.9126 1607.7 89.1126Z" fill="#EFE2DA"/>
<path d="M1622.9 98.6127C1622.9 97.9127 1622.9 97.0127 1622.7 95.9127C1622.5 94.6127 1620.4 94.8127 1620.6 96.2127C1620.7 97.0127 1620.8 97.8127 1620.9 98.6127C1621.1 99.9127 1622.9 99.7127 1622.9 98.6127Z" fill="#EFE2DA"/>
<path d="M1635.2 96.3127C1634.6 94.1127 1634.6 93.4127 1634.1 93.0127C1633.6 92.6127 1632.8 92.7127 1632.4 93.2127C1631.9 93.9127 1632.2 94.4127 1632.9 96.8127C1633.6 98.3127 1635.5 97.4127 1635.2 96.3127Z" fill="#EFE2DA"/>
<path d="M1645.1 93.9127C1644.4 94.0127 1643.9 94.6127 1644 95.3127C1644.1 96.1127 1646.4 97.8127 1647 98.2127C1648.2 99.0127 1649.6 97.4127 1648.4 96.3127C1646 94.2127 1646 93.8127 1645.1 93.9127Z" fill="#EFE2DA"/>
<path d="M1648.1 85.6128C1649 85.7128 1649.9 85.7128 1650.9 85.8128C1651.7 85.9128 1652.4 85.2128 1652.2 84.4128C1652 83.3128 1651 83.3128 1648.4 83.1128C1646.6 83.0128 1646.6 85.5128 1648.1 85.6128Z" fill="#EFE2DA"/>
<path d="M1649.5 74.8127C1650.4 74.5127 1650.1 72.8127 1648.8 73.2127C1647.2 73.7127 1645.4 73.9127 1645.9 75.1127C1646.4 76.0127 1647.2 75.6127 1649.5 74.8127Z" fill="#EFE2DA"/>
<path d="M1661.7 72.6126C1661.2 72.9126 1661.1 73.3126 1661.3 73.7126C1661.7 74.7126 1662.7 74.0126 1664.8 73.0126C1665.2 72.8126 1665.5 72.3126 1665.3 71.8126C1664.7 70.7126 1663.5 71.5126 1661.7 72.6126Z" fill="#EFE2DA"/>
<path d="M1664.8 82.6126C1665.2 83.2126 1666.2 83.3126 1667.1 81.8126C1668.3 80.0126 1669.2 79.0126 1668.2 78.3126C1667.8 78.0126 1667 78.0127 1666.7 78.5127C1666.4 78.9127 1666.1 79.4126 1665.8 79.8126C1664.9 81.4126 1664.2 81.9126 1664.8 82.6126Z" fill="#EFE2DA"/>
<path d="M1679.3 88.1127C1678.9 87.0127 1678.5 85.9127 1678.1 84.8127C1677.9 84.2127 1677.1 83.9127 1676.5 84.2127C1675.2 84.7127 1675.8 86.1127 1677.2 89.1127C1677.8 90.3127 1679.9 89.6127 1679.3 88.1127Z" fill="#EFE2DA"/>
<path d="M1682.9 73.3128C1681.9 73.2128 1681.3 74.4128 1681.9 75.0128C1683.7 76.9128 1684.2 77.7128 1684.8 77.8128C1685.8 77.9128 1686.3 76.8128 1685.7 76.1128C1683.8 73.9128 1683.5 73.4128 1682.9 73.3128Z" fill="#EFE2DA"/>
<path d="M1692.2 73.8126C1692.8 77.6126 1692.8 78.9126 1694 78.8126C1695.3 78.6126 1694.9 77.6126 1694.3 73.5126C1694.2 72.1126 1692 72.5126 1692.2 73.8126Z" fill="#EFE2DA"/>
<path d="M1703.9 70.4127C1703.5 70.3127 1702 69.5127 1701.6 69.2127C1700.8 68.8127 1699.8 69.7127 1700.2 70.7127C1700.5 71.4127 1702.9 72.4127 1703.7 72.5127C1704.8 72.6127 1705.4 70.8127 1703.9 70.4127Z" fill="#EFE2DA"/>
<path d="M1702.3 56.6127C1700.8 57.9127 1697.9 58.3127 1698.6 59.9127C1698.9 60.5127 1699.6 60.7127 1700.1 60.5127C1702.3 59.3127 1704.9 58.1127 1703.8 56.8127C1703.4 56.4127 1702.7 56.3127 1702.3 56.6127Z" fill="#EFE2DA"/>
<path d="M1698.9 49.3128C1698.8 48.4128 1697.6 48.1128 1697.1 48.8128C1696.1 50.2128 1695.1 51.3128 1696.1 52.0128C1696.5 52.3128 1697.2 52.3128 1697.6 51.8128C1698.7 50.1128 1699 49.9128 1698.9 49.3128Z" fill="#EFE2DA"/>
<path d="M1590.4 78.7127C1590.7 79.1127 1591.2 79.1127 1591.6 78.8127C1592.7 78.0127 1591 76.8127 1589.9 75.9127C1589.5 75.6127 1589 75.7127 1588.7 76.1127C1588 77.0127 1589.2 77.5127 1590.1 78.4127C1590.2 78.5127 1590.3 78.6127 1590.4 78.7127Z" fill="#EFE2DA"/>
<path d="M1585.9 87.0127C1586.6 87.3127 1587.3 86.5127 1587 85.9127C1585.9 84.0127 1585.8 82.5127 1584.7 83.0127C1583.8 83.4127 1584.4 84.4127 1584.9 85.5127C1585 85.8127 1585.5 86.8127 1585.9 87.0127Z" fill="#EFE2DA"/>
<path d="M1579.4 84.5127C1579.5 83.9127 1579.1 83.4127 1578.5 83.3127C1576.6 83.1127 1577.3 86.8127 1576.5 88.8127C1576.2 89.4127 1576.8 90.2127 1577.5 90.1127C1578.5 90.0127 1578.8 88.0127 1579.4 84.5127Z" fill="#EFE2DA"/>
<path d="M1573.3 77.9127C1574.2 76.6127 1572.3 75.3127 1571.4 76.5127C1569.1 79.7127 1568.2 80.6127 1569.2 81.4127C1570.4 82.2127 1571.2 80.8127 1573.3 77.9127Z" fill="#EFE2DA"/>
<path d="M1565.7 76.7128C1566.2 75.5128 1566.2 74.4128 1566.5 71.8128C1566.6 71.2128 1566.2 70.7128 1565.6 70.6128C1563.8 70.4128 1564.6 73.4128 1563.9 75.9128C1563.5 77.4128 1565.3 77.7128 1565.7 76.7128Z" fill="#EFE2DA"/>
<path d="M1554.3 74.1126C1553.3 75.0126 1554.6 76.3126 1555.4 75.5126C1559.3 72.1126 1556.5 71.1126 1555.8 72.1126C1555.1 73.1126 1554.9 73.6126 1554.3 74.1126Z" fill="#EFE2DA"/>
<path d="M1549.5 63.6127C1548.7 63.5127 1548 64.5127 1548.6 65.2127C1549 65.7127 1550.6 65.9127 1553.5 66.5127C1554.1 66.6127 1554.8 66.0127 1554.7 65.3127C1554.6 64.3127 1554 64.3127 1549.5 63.6127Z" fill="#EFE2DA"/>
<path d="M1556.2 55.5128C1555.8 55.3128 1554.8 54.6128 1554.4 54.6128C1553.6 54.7128 1553.5 55.8128 1554 56.1128C1554.4 56.3128 1554.8 56.6128 1555.2 56.8128C1556.3 57.5128 1557.1 56.0128 1556.2 55.5128Z" fill="#EFE2DA"/>
<path d="M172.63 264.254C178.68 251.244 177.96 233.231 167.589 222.366C210.512 222.652 165.573 370.476 165.573 370.476H163.268C148.864 336.737 156.786 297.136 172.63 264.254Z" fill="#00A138"/>
<path d="M167.589 222.366C167.589 222.366 167.733 222.366 167.589 222.366C177.959 233.231 178.68 251.244 172.774 264.254C156.93 297.136 149.008 336.737 163.556 370.619H161.251C161.107 370.619 124.377 222.366 167.589 222.366Z" fill="#6FD189"/>
<path d="M217.282 272.403C218.291 272.832 219.299 273.261 220.307 273.976C244.65 289.988 206.624 324.871 174.215 313.577C174.215 313.577 174.215 313.434 174.359 313.291C186.026 312.433 197.261 308.716 206.047 300.424C213.97 293.848 219.155 282.839 217.282 272.403Z" fill="#00A138"/>
<path d="M217.282 272.403C219.154 282.839 213.825 293.848 206.191 300.281C197.405 308.573 186.17 312.29 174.503 313.148C176.375 308.716 196.685 264.254 217.282 272.403Z" fill="#6FD189"/>
<path d="M151.889 261.824C152.465 262.825 152.753 263.539 152.753 263.539V269.83C152.753 269.83 102.196 253.818 106.229 238.092C123.37 236.948 140.366 249.243 151.889 261.824Z" fill="#6FD189"/>
<path d="M106.373 238.092C106.806 236.376 107.814 234.661 109.686 233.088C126.539 218.077 147.424 253.532 151.889 261.824C140.366 249.243 123.37 236.948 106.373 238.092Z" fill="#00A138"/>
<path d="M118.617 188.626C120.345 187.769 122.362 187.769 124.81 188.769C141.807 195.346 120.201 234.518 120.201 234.518C120.057 234.232 119.769 233.946 119.625 233.66C123.658 219.221 128.267 200.35 118.617 188.626Z" fill="#00A138"/>
<path d="M118.616 188.626C128.267 200.349 123.801 219.078 119.48 233.517C112.278 223.081 109.11 193.344 118.616 188.626Z" fill="#6FD189"/>
<path d="M200.862 331.59H128.267C128.267 331.59 127.259 380.054 164.564 380.054C201.87 380.054 200.862 331.59 200.862 331.59Z" fill="#FFCC46"/>
<path d="M193.948 331.59H201.006C201.006 331.59 202.014 380.054 164.709 380.054C163.556 380.054 162.404 380.054 161.252 379.912C194.956 376.909 193.948 331.59 193.948 331.59Z" fill="#FFA42F"/>
<path d="M158.947 230.658C158.947 231.373 159.523 231.944 160.244 231.944C160.964 231.944 161.54 231.373 161.54 230.658C161.54 229.943 160.964 229.371 160.244 229.371C159.523 229.371 158.947 229.943 158.947 230.658Z" fill="#00A138"/>
<path d="M148.144 266.828C148.144 267.542 148.721 268.257 149.585 268.257C150.305 268.257 151.025 267.685 151.025 266.828C151.025 266.113 150.449 265.398 149.585 265.398C148.721 265.398 148.144 266.113 148.144 266.828Z" fill="#00A138"/>
<path d="M126.826 247.528C126.826 247.956 127.114 248.242 127.547 248.242C127.979 248.242 128.267 247.956 128.267 247.528C128.267 247.099 127.979 246.813 127.547 246.813C127.259 246.813 126.826 247.099 126.826 247.528Z" fill="#00A138"/>
<path d="M116.744 198.777C116.744 199.206 117.176 199.635 117.608 199.635C118.04 199.635 118.472 199.206 118.472 198.777C118.472 198.348 118.04 197.919 117.608 197.919C117.176 197.919 116.744 198.205 116.744 198.777Z" fill="#00A138"/>
<path d="M170.614 252.96C170.614 253.532 171.046 253.961 171.622 253.961C172.198 253.961 172.631 253.532 172.631 252.96C172.631 252.388 172.198 251.959 171.622 251.959C171.046 251.959 170.614 252.388 170.614 252.96Z" fill="#00A138"/>
<path d="M156.354 290.702C156.354 291.417 156.93 291.989 157.65 291.989C158.371 291.989 158.947 291.417 158.947 290.702C158.947 289.988 158.371 289.416 157.65 289.416C156.93 289.416 156.354 289.988 156.354 290.702Z" fill="#00A138"/>
<path d="M152.897 314.434C152.897 315.149 153.185 315.721 153.617 315.721C154.049 315.721 154.337 315.149 154.337 314.434C154.337 313.72 154.049 313.148 153.617 313.148C153.185 313.148 152.897 313.72 152.897 314.434Z" fill="#00A138"/>
<path d="M111.415 246.241C111.415 246.527 111.703 246.813 111.991 246.813C112.279 246.813 112.567 246.527 112.567 246.241C112.567 245.955 112.279 245.669 111.991 245.669C111.703 245.669 111.415 245.955 111.415 246.241Z" fill="#00A138"/>
<path d="M212.673 276.978C213.23 276.978 213.681 276.53 213.681 275.977C213.681 275.425 213.23 274.977 212.673 274.977C212.116 274.977 211.665 275.425 211.665 275.977C211.665 276.53 212.116 276.978 212.673 276.978Z" fill="#00A138"/>
<path d="M198.558 291.989C198.558 292.704 199.134 293.133 199.71 293.133C200.286 293.133 200.862 292.561 200.862 291.989C200.862 291.274 200.286 290.845 199.71 290.845C199.134 290.845 198.558 291.274 198.558 291.989Z" fill="#00A138"/>
<path d="M181.417 303.855C181.417 304.427 181.849 304.856 182.425 304.856C183.001 304.856 183.434 304.427 183.434 303.855C183.434 303.283 183.001 302.854 182.425 302.854C181.849 302.854 181.417 303.283 181.417 303.855Z" fill="#00A138"/>
<path d="M208.928 295.42C208.928 296.707 210.224 297.708 211.809 297.708C213.393 297.708 214.689 296.707 214.689 295.42C214.689 294.134 213.393 293.133 211.809 293.133C210.224 293.133 208.928 294.134 208.928 295.42Z" fill="#00A138"/>
<path d="M1712.3 210V176H1845.2V210H1831.8V244H1852.4V278V312H1854.5V346H1861.7V380H1728.8V346H1721.6V312H1719.6V278V244H1699V210H1712.3Z" fill="#FBFBFB"/>
<path d="M1712.3 210H1772.5L1712.3 203.5V210Z" fill="#E6E6E6"/>
<path d="M1845.2 200.3H1774L1845.2 197.9V200.3Z" fill="#E6E6E6"/>
<path d="M1831.8 210H1800.9L1831.8 213.5V210Z" fill="#E6E6E6"/>
<path d="M1712.3 181H1818.9L1712.3 183.4V181Z" fill="#E6E6E6"/>
<path d="M1845.2 190H1731.5L1845.2 187.4V190Z" fill="#E6E6E6"/>
<path d="M1699 216.9H1798.8L1699 220.6V216.9Z" fill="#E6E6E6"/>
<path d="M1719.6 244H1852.4L1719.6 250.4V244Z" fill="#E6E6E6"/>
<path d="M1831.8 236.4H1746.3L1831.8 233.8V236.4Z" fill="#E6E6E6"/>
<path d="M1699 229.3L1736.8 231.9H1699V229.3Z" fill="#E6E6E6"/>
<path d="M1852.4 278L1719.6 279.4L1852.4 282.8V278Z" fill="#E6E6E6"/>
<path d="M1852.4 254.3H1767.8L1852.4 257.2V254.3Z" fill="#E6E6E6"/>
<path d="M1719.6 263L1818.9 265.9L1719.6 267.2V263Z" fill="#E6E6E6"/>
<path d="M1719.6 273.3H1772.5L1719.6 275.9V273.3Z" fill="#E6E6E6"/>
<path d="M1719.6 312H1849.6L1719.6 303.9V312Z" fill="#E6E6E6"/>
<path d="M1852.4 292.3L1798.8 294.1L1852.4 295.7V292.3Z" fill="#E6E6E6"/>
<path d="M1719.6 286.8L1754 289.7H1719.6V286.8Z" fill="#E6E6E6"/>
<path d="M1854.5 319.9L1814.2 321.5H1854.5V319.9Z" fill="#E6E6E6"/>
<path d="M1854.5 332.4L1724 338H1854.5V332.4Z" fill="#E6E6E6"/>
<path d="M1861.7 346H1733.7L1861.7 352.3V346Z" fill="#E6E6E6"/>
<path d="M1728.8 353.2H1770.2L1728.8 357.3V353.2Z" fill="#E6E6E6"/>
<path d="M1861.7 364.4L1775.9 368.3H1861.7V364.4Z" fill="#E6E6E6"/>
<path d="M1861.7 380L1728.8 373.3V380H1861.7Z" fill="#E6E6E6"/>
<path d="M1883.1 368.3C1888.7 368.3 1893.3 366.8 1896.8 363.8C1903.5 358 1903.2 348.7 1903.2 348.3C1903.2 347.4 1902.4 346.6 1901.4 346.6H1882C1881 346.6 1880.2 347.4 1880.2 348.4C1880.2 349.4 1881 350.2 1882 350.2H1899.5C1899.3 352.8 1898.3 357.8 1894.4 361.2C1890.5 364.6 1884.5 365.6 1876.6 364.2C1875.6 364 1874.7 364.7 1874.5 365.6C1874.3 366.6 1875 367.5 1875.9 367.7C1878.5 368 1880.9 368.3 1883.1 368.3Z" fill="#E8462C"/>
<path d="M1888.1 343.2H1829C1829 343.2 1831.4 379.6 1858.5 380.1C1885.7 380.5 1888.1 343.2 1888.1 343.2Z" fill="#FF5B41"/>
<path d="M1855 373.4C1874.9 373.7 1881.5 353.9 1883.6 343.2H1888.1C1888.1 343.2 1885.7 380.5 1858.6 380.1C1844.9 379.9 1837.5 370.5 1833.6 361.3C1837.9 367.8 1844.7 373.2 1855 373.4Z" fill="#E8462C"/>
<path d="M1791.4 313.9V291H1681C1702.1 298.7 1720 311.8 1743.5 316.6C1760.1 319.9 1775.9 317.7 1791.4 313.9Z" fill="#7860DC"/>
<path d="M1743.5 316.6C1720 311.8 1702.1 298.7 1681 291H1676.4V320.5H1791.5V313.9C1775.9 317.7 1760.1 319.9 1743.5 316.6Z" fill="#6A51D4"/>
<path d="M1712.1 365.7C1733.4 372.4 1755.5 373.4 1777.2 370.8V350H1662.2V350.7C1679.5 350.3 1696 360.9 1712.1 365.7Z" fill="#FF5B41"/>
<path d="M1712.1 365.7C1696 360.9 1679.5 350.3 1662.2 350.7V379.5H1777.3V370.8C1755.5 373.4 1733.5 372.4 1712.1 365.7Z" fill="#F23F22"/>
<path d="M1769.1 343.7V320.5H1662.5C1675.8 324 1688.4 333 1701.7 337.6C1723.7 344.2 1746.6 346.1 1769.1 343.7Z" fill="#FFA42F"/>
<path d="M1701.7 337.6C1688.4 333 1675.8 324 1662.5 320.5H1654V350H1769.1V343.7C1746.6 346.1 1723.7 344.2 1701.7 337.6Z" fill="#FA9514"/>
<path d="M1690.5 312.7C1686.7 312.7 1683.5 309.6 1683.5 305.7C1683.5 301.9 1686.6 298.7 1690.5 298.7C1694.4 298.7 1697.5 301.8 1697.5 305.7C1697.4 309.6 1694.3 312.7 1690.5 312.7Z" fill="white"/>
<path d="M1668.2 342.2C1664.4 342.2 1661.2 339.1 1661.2 335.2C1661.2 331.3 1664.3 328.2 1668.2 328.2C1672.1 328.2 1675.2 331.3 1675.2 335.2C1675.2 339.1 1672 342.2 1668.2 342.2Z" fill="white"/>
<path d="M1676.3 371.7C1672.5 371.7 1669.3 368.6 1669.3 364.7C1669.3 360.8 1672.4 357.7 1676.3 357.7C1680.1 357.7 1683.3 360.8 1683.3 364.7C1683.3 368.6 1680.2 371.7 1676.3 371.7Z" fill="white"/>
</g>
</svg>
